# This file uses centimeters as units for non-parametric coordinates.

mtllib largeHouse_garage.mtl
g default
v 2.999973 0.000000 6.003902
v 2.999973 4.885929 6.003902
v 2.999973 4.885929 -6.003884
v 2.999973 0.000000 -6.003884
v -2.555103 0.000000 6.003902
v -2.555103 4.000000 6.003902
v 2.555042 0.000000 6.003902
v 2.555042 4.000000 6.003902
v -2.555103 -0.000000 -5.664495
v -2.555103 4.000000 -5.664495
v 2.555042 -0.000000 -5.664495
v 2.555042 4.000000 -5.664495
v -2.999973 0.000000 6.003898
v -2.999973 4.885929 6.003902
v -2.999973 4.885929 -6.003884
v -2.999973 0.000000 -6.003884
vt 0.625000 0.000000
vt 0.875000 0.000000
vt 0.875000 0.250000
vt 0.625000 0.250000
vt 0.562500 0.250000
vt 0.625000 0.500000
vt 0.562500 0.500000
vt 0.562500 0.750000
vt 0.625000 0.750000
vt 0.562500 0.250000
vt 0.562500 0.000000
vt 0.625000 0.000000
vt 0.625000 0.250000
vt 0.562500 0.000000
vt 0.562500 0.000000
vt 0.562500 0.250000
vt 0.625000 0.250000
vt 0.625000 0.000000
vt 0.000000 0.000000
vt 1.000000 0.000000
vt 1.000000 1.000000
vt 0.000000 1.000000
vn 1.000000 0.000000 0.000000
vn 1.000000 0.000000 0.000000
vn 1.000000 0.000000 0.000000
vn 1.000000 0.000000 0.000000
vn 0.000000 1.000000 0.000000
vn 0.000000 1.000000 0.000000
vn 0.000000 1.000000 0.000000
vn 0.000000 1.000000 0.000000
vn 0.000000 0.000000 -1.000000
vn 0.000000 0.000000 -1.000000
vn 0.000000 0.000000 -1.000000
vn 0.000000 0.000000 -1.000000
vn 0.000000 0.000000 1.000000
vn 0.000000 0.000000 1.000000
vn 0.000000 0.000000 1.000000
vn 0.000000 0.000000 1.000000
vn -0.000001 -0.000000 1.000000
vn -0.000006 -0.000001 1.000000
vn -0.000006 -0.000001 1.000000
vn -0.000002 -0.000000 1.000000
vn 0.000000 0.000000 1.000000
vn 0.000000 0.000000 1.000000
vn 0.000000 0.000000 1.000000
vn 0.000000 0.000000 1.000000
vn 1.000000 0.000000 0.000000
vn 1.000000 0.000000 0.000000
vn 1.000000 0.000000 0.000000
vn 1.000000 0.000000 0.000000
vn -0.000000 1.000000 -0.000000
vn -0.000000 1.000000 -0.000000
vn -0.000000 1.000000 -0.000000
vn -0.000000 1.000000 -0.000000
vn -1.000000 0.000000 0.000000
vn -1.000000 0.000000 0.000000
vn -1.000000 0.000000 0.000000
vn -1.000000 0.000000 0.000000
vn 0.000000 -1.000000 0.000000
vn 0.000000 -1.000000 0.000000
vn 0.000000 -1.000000 0.000000
vn 0.000000 -1.000000 0.000000
vn -1.000000 -0.000000 0.000000
vn -1.000000 -0.000000 0.000000
vn -1.000000 -0.000000 0.000000
vn -1.000000 -0.000000 0.000000
s off
g polySurface49 polySurface18 polySurface11
usemtl initialShadingGroup
f 1/1/1 4/2/2 3/3/3 2/4/4
f 14/5/5 2/4/6 3/6/7 15/7/8
f 16/8/9 15/7/10 3/6/11 4/9/12
f 10/10/13 9/11/14 11/12/15 12/13/16
s 1
f 14/5/17 13/14/18 5/15/19 6/16/20
f 1/1/21 2/4/22 8/17/23 7/18/24
f 2/4/22 14/5/17 6/16/20 8/17/23
s off
f 6/16/25 5/15/26 9/11/27 10/10/28
f 5/15/29 7/18/30 11/12/31 9/11/32
f 7/18/33 8/17/34 12/13/35 11/12/36
f 8/17/37 6/16/38 10/10/39 12/13/40
f 14/19/41 15/20/42 16/21/43 13/22/44
