# This file uses centimeters as units for non-parametric coordinates.

mtllib smallHouse_01.mtl
g default
v -9.165147 0.000000 3.499999
v 8.834853 0.000000 3.500000
v -9.165147 4.000000 3.499999
v 8.834853 4.000000 3.500000
v -9.165147 4.000000 -3.500000
v 8.834853 4.000000 -3.500000
v -9.165147 0.000000 -3.500000
v 8.834853 0.000000 -3.500000
v 2.834852 4.000000 3.500000
v 2.834852 4.000000 -3.500000
v 2.834852 0.000000 -3.500000
v 2.834852 0.000000 3.500000
v -3.165148 4.000000 3.500000
v -3.165148 4.000000 -3.500000
v -3.165148 0.000000 -3.500000
v -3.165148 0.000000 3.500000
v -3.165148 4.336329 3.500000
v -9.165147 4.336329 3.499999
v -9.165147 4.336329 -3.500000
v -3.165148 4.336329 -3.500000
v 2.834852 4.336329 3.500000
v 2.834852 4.336329 -3.500000
v 8.834853 4.336329 3.500000
v 8.834853 4.336329 -3.500000
v -3.165148 4.000000 3.672647
v -3.165148 4.336329 3.672647
v -9.337794 4.000000 3.672647
v -9.337794 4.336329 3.672647
v -9.337794 4.000000 -3.672647
v -3.165148 4.000000 -3.672647
v -9.337794 4.336329 -3.672647
v -3.165148 4.336329 -3.672647
v 2.834852 4.000000 3.672647
v 2.834852 4.336329 3.672647
v 2.834852 4.000000 -3.672647
v 2.834852 4.336329 -3.672647
v 9.007499 4.000000 3.672647
v 9.007499 4.336329 3.672647
v 9.007499 4.000000 -3.672647
v 9.007499 4.336329 -3.672647
v -9.165147 0.000000 3.500000
v -9.165147 4.000000 3.500000
v -9.165147 4.000000 3.500000
v -9.337794 4.000000 3.672647
v -9.165147 4.336329 3.500000
v -9.337794 4.336329 3.672647
vt 0.375000 0.000000
vt 0.625000 0.000000
vt 0.375000 0.250000
vt 0.625000 0.250000
vt 0.250000 0.375000
vt 0.750000 0.375000
vt 0.375000 0.750000
vt 0.625000 0.750000
vt 0.875000 0.000000
vt 0.125000 0.000000
vt 0.541667 0.250000
vt 0.541667 0.500000
vt 0.541667 0.750000
vt 0.541667 0.000000
vt 0.458333 0.250000
vt 0.458333 0.500000
vt 0.458333 0.750000
vt 0.458333 0.000000
vt 0.458333 0.250000
vt 0.375000 0.250000
vt 0.458333 0.500000
vt 0.250000 0.375000
vt 0.541667 0.250000
vt 0.541667 0.500000
vt 0.625000 0.250000
vt 0.750000 0.375000
vt 0.458333 0.250000
vt 0.458333 0.250000
vt 0.375000 0.250000
vt 0.375000 0.250000
vt 0.458333 0.500000
vt 0.250000 0.375000
vt 0.250000 0.375000
vt 0.458333 0.500000
vt 0.541667 0.250000
vt 0.541667 0.250000
vt 0.541667 0.500000
vt 0.541667 0.500000
vt 0.625000 0.250000
vt 0.625000 0.250000
vt 0.750000 0.375000
vt 0.750000 0.375000
vt 0.000000 0.000000
vt 1.000000 0.000000
vt 1.000000 1.000000
vt 0.000000 1.000000
vt 0.000000 0.000000
vt 1.000000 0.000000
vt 1.000000 1.000000
vt 0.000000 1.000000
vt 0.000000 0.000000
vt 1.000000 0.000000
vt 1.000000 1.000000
vt 0.000000 1.000000
vt 0.000000 0.000000
vt 1.000000 0.000000
vt 1.000000 1.000000
vt 0.000000 1.000000
vn 0.000000 0.000000 -1.000000
vn 0.000000 0.000000 -1.000000
vn 0.000000 0.000000 -1.000000
vn 0.000000 0.000000 -1.000000
vn 1.000000 0.000000 0.000000
vn 1.000000 0.000000 0.000000
vn 1.000000 0.000000 0.000000
vn 1.000000 0.000000 0.000000
vn -1.000000 0.000000 0.000000
vn -1.000000 0.000000 0.000000
vn -1.000000 0.000000 0.000000
vn -1.000000 0.000000 0.000000
vn 0.000000 0.000000 -1.000000
vn 0.000000 0.000000 -1.000000
vn 0.000000 0.000000 -1.000000
vn 0.000000 0.000000 -1.000000
vn 0.000000 0.000000 1.000000
vn 0.000000 0.000000 1.000000
vn 0.000000 0.000000 1.000000
vn 0.000000 0.000000 1.000000
vn 0.000000 0.000000 1.000000
vn 0.000000 0.000000 1.000000
vn -0.000000 1.000000 -0.000000
vn -0.000000 1.000000 -0.000000
vn -0.000000 1.000000 0.000000
vn -0.000000 1.000000 0.000000
vn 0.000000 1.000000 0.000000
vn 0.000000 1.000000 0.000000
vn 0.000000 1.000000 0.000000
vn 0.000000 1.000000 0.000000
vn 0.000000 1.000000 0.000000
vn 0.000000 0.000000 -1.000000
vn 0.000000 0.000000 -1.000000
vn 0.000000 0.000000 -1.000000
vn 0.000000 0.000000 -1.000000
vn -1.000000 0.000000 0.000000
vn -1.000000 0.000000 0.000000
vn -1.000000 0.000000 0.000000
vn -1.000000 0.000000 0.000000
vn 0.000000 0.000000 1.000000
vn 0.000000 0.000000 1.000000
vn 0.000000 0.000000 1.000000
vn 0.000000 0.000000 1.000000
vn 0.000000 0.000000 -1.000000
vn 0.000000 0.000000 -1.000000
vn 0.000000 0.000000 1.000000
vn 0.000000 0.000000 1.000000
vn 1.000000 0.000000 0.000000
vn 1.000000 0.000000 0.000000
vn 1.000000 0.000000 0.000000
vn 1.000000 0.000000 0.000000
vn 0.000000 0.000000 -1.000000
vn 0.000000 0.000000 -1.000000
vn 0.000000 -1.000000 0.000000
vn 0.000000 -1.000000 0.000000
vn 0.000000 -1.000000 0.000000
vn 0.000000 -1.000000 0.000000
vn -0.000000 1.000000 -0.000000
vn -0.000000 1.000000 -0.000000
vn 0.000000 -1.000000 0.000000
vn 0.000000 -1.000000 0.000000
vn 0.000000 1.000000 0.000000
vn -0.000000 -1.000000 0.000000
vn -0.000000 -1.000000 0.000000
vn -0.000000 -1.000000 0.000000
vn -0.000000 -1.000000 0.000000
vn 0.000000 1.000000 0.000000
vn 0.000000 1.000000 0.000000
vn -0.000000 -1.000000 0.000000
vn -0.000000 -1.000000 0.000000
vn 0.000000 1.000000 0.000000
vn 0.000000 -1.000000 0.000000
vn 0.000000 -1.000000 0.000000
vn 0.000000 1.000000 0.000000
vn 0.000000 -1.000000 0.000000
vn 0.000000 -1.000000 0.000000
vn 0.000000 1.000000 0.000000
vn 0.000000 0.000000 1.000000
vn 0.000000 0.000000 1.000000
vn 0.000000 0.000000 1.000000
vn 0.000000 0.000000 1.000000
vn 0.000000 -1.000000 0.000002
vn 0.000000 -1.000000 0.000002
vn 0.000000 -1.000000 0.000002
vn 0.000000 -1.000000 0.000002
vn 0.000000 1.000000 -0.000002
vn 0.000000 1.000000 -0.000002
vn 0.000000 1.000000 -0.000002
vn 0.000000 1.000000 -0.000002
vn 0.000000 0.000000 1.000000
vn 0.000000 0.000000 1.000000
vn 0.000000 0.000000 1.000000
vn 0.000000 0.000000 1.000000
s 1
g pCube34
usemtl initialShadingGroup
f 5/5/1 14/16/2 15/17/3 7/7/4
s off
f 2/2/5 8/9/6 6/6/7 4/4/8
f 7/10/9 1/1/10 3/3/11 5/5/12
s 1
f 11/13/13 10/12/14 6/6/15 8/8/16
s 2
f 9/11/17 12/14/18 2/2/19 4/4/20
s 1
f 15/17/3 14/16/2 10/12/14 11/13/13
s 2
f 13/15/21 16/18/22 12/14/18 9/11/17
s 3
f 20/21/23 19/22/24 18/20/25 17/19/26
f 17/19/27 21/23/28 22/24/29 20/21/23
f 21/23/28 23/25/30 24/26/31 22/24/29
s 6
f 30/31/32 29/32/33 31/33/34 32/34/35
s off
f 29/32/36 27/29/37 28/30/38 31/33/39
s 7
f 25/27/40 33/35/41 34/36/42 26/28/43
s 6
f 35/37/44 30/31/32 32/34/35 36/38/45
s 7
f 33/35/41 37/39/46 38/40/47 34/36/42
s off
f 37/39/48 39/41/49 40/42/50 38/40/51
s 6
f 39/41/52 35/37/44 36/38/45 40/42/53
s 8
f 14/16/54 5/5/55 29/32/56 30/31/57
s 3
f 19/22/24 20/21/23 32/34/58 31/33/59
s 8
f 5/5/55 3/3/60 27/29/61 29/32/56
s 3
f 18/20/25 19/22/24 31/33/59 28/30/62
s 8
f 13/15/63 9/11/64 33/35/65 25/27/66
s 3
f 21/23/28 17/19/27 26/28/67 34/36/68
s 8
f 10/12/69 14/16/54 30/31/57 35/37/70
s 3
f 20/21/23 22/24/29 36/38/71 32/34/58
s 8
f 9/11/64 4/4/72 37/39/73 33/35/65
s 3
f 23/25/30 21/23/28 34/36/68 38/40/74
s 8
f 4/4/72 6/6/75 39/41/76 37/39/73
s 3
f 24/26/31 23/25/30 38/40/74 40/42/77
s 8
f 6/6/75 10/12/69 35/37/70 39/41/76
s 3
f 22/24/29 24/26/31 40/42/77 36/38/71
s off
f 16/43/78 13/44/79 42/45/80 41/46/81
f 13/47/82 25/48/83 44/49/84 43/50/85
f 26/51/86 17/52/87 45/53/88 46/54/89
f 25/55/90 26/56/91 46/57/92 44/58/93
