# This file uses centimeters as units for non-parametric coordinates.

mtllib smallHouse_03.mtl
g default
v -3.165148 0.000000 3.500000
v 2.834852 0.000000 3.500000
v -3.165148 4.000000 3.500000
v 2.834852 4.000000 3.500000
v -3.165148 4.000000 -3.500000
v 2.834852 4.000000 -3.500000
v -3.165148 0.000000 -3.500000
v 2.834852 0.000000 -3.500000
v 8.834852 0.000000 -3.500000
v 8.834852 0.000000 3.500000
v 8.834852 4.000000 -3.500000
v 8.834852 4.000000 3.500000
v -9.165148 0.000000 -3.500000
v -9.165148 0.000000 3.500000
v -9.165148 4.000000 3.500000
v -9.165148 4.000000 -3.500000
v -3.165148 6.000000 0.000000
v 2.834852 6.000000 0.000000
v 7.000000 6.000000 0.000000
v -7.000000 6.000000 0.000000
vt 0.375000 0.000000
vt 0.625000 0.000000
vt 0.375000 0.250000
vt 0.625000 0.250000
vt 0.375000 0.500000
vt 0.625000 0.500000
vt 0.375000 0.750000
vt 0.625000 0.750000
vt 0.375000 1.000000
vt 0.625000 1.000000
vt 0.875000 0.000000
vt 0.875000 0.250000
vt 0.125000 0.000000
vt 0.125000 0.250000
vt 0.625000 0.000000
vt 0.875000 0.000000
vt 0.875000 0.250000
vt 0.625000 0.250000
vt 0.125000 0.000000
vt 0.375000 0.000000
vt 0.375000 0.250000
vt 0.125000 0.250000
vt 0.375000 0.250000
vt 0.625000 0.250000
vt 0.625000 0.500000
vt 0.375000 0.500000
vt 0.750000 0.250000
vt 0.875000 0.250000
vt 0.125000 0.250000
vt 0.250000 0.250000
vn 0.000000 0.000000 1.000000
vn 0.000000 0.000000 1.000000
vn 0.000000 0.483815 0.875170
vn 0.000000 0.480006 0.877265
vn 0.000000 0.480006 -0.877265
vn -0.000000 0.483815 -0.875170
vn -0.000000 0.000000 -1.000000
vn 0.000000 0.000000 -1.000000
vn -0.000000 -1.000000 0.000000
vn 0.000000 -1.000000 0.000000
vn 0.000000 -1.000000 0.000000
vn -0.000000 -1.000000 0.000000
vn 1.000000 0.000000 0.000000
vn 1.000000 0.000000 0.000000
vn 0.996223 0.086832 0.000000
vn 0.996223 0.086832 0.000000
vn -1.000000 0.000000 0.000000
vn -1.000000 0.000000 0.000000
vn -0.994165 0.107873 0.000000
vn -0.994165 0.107873 0.000000
vn 0.000000 -1.000000 0.000000
vn 0.000000 -1.000000 0.000000
vn -0.000000 0.381300 -0.924451
vn -0.000000 0.000000 -1.000000
vn 0.000000 0.000000 1.000000
vn 0.000000 0.381300 0.924451
vn -0.000000 -1.000000 0.000000
vn -0.000000 -1.000000 0.000000
vn 0.000000 0.358555 0.933508
vn 0.000000 0.000000 1.000000
vn 0.000000 0.000000 -1.000000
vn 0.000000 0.358555 -0.933508
vn 0.000000 0.868243 0.496139
vn 0.000000 0.868243 0.496139
vn 0.000000 0.868243 -0.496139
vn 0.000000 0.868243 -0.496139
vn 0.000000 0.868243 0.496139
vn 0.736875 0.676029 0.000000
vn 0.000000 0.868243 -0.496139
vn 0.000000 0.868243 -0.496139
vn -0.678537 0.734566 0.000000
vn 0.000000 0.868243 0.496139
s 1
g pCube89
usemtl initialShadingGroup
f 1/1/1 2/2/2 4/4/3 3/3/4
s 2
f 5/5/5 6/6/6 8/8/7 7/7/8
s 3
f 7/7/9 8/8/10 2/10/11 1/9/12
s 4
f 10/15/13 9/16/14 11/17/15 12/18/16
s 5
f 13/19/17 14/20/18 15/21/19 16/22/20
s 3
f 2/2/11 8/11/10 9/16/21 10/15/22
s 2
f 8/11/7 6/12/6 11/17/23 9/16/24
s 1
f 4/4/3 2/2/2 10/15/25 12/18/26
s 3
f 7/13/9 1/1/12 14/20/27 13/19/28
s 1
f 1/1/1 3/3/4 15/21/29 14/20/30
s 2
f 5/14/5 7/13/8 13/19/31 16/22/32
s 1
f 3/3/4 4/4/3 18/24/33 17/23/34
s 2
f 6/6/6 5/5/5 17/26/35 18/25/36
s 1
f 4/4/3 12/18/26 19/27/37 18/24/33
s 4
f 12/18/16 11/17/15 19/27/38
s 2
f 11/17/23 6/12/6 18/28/36 19/27/39
f 5/14/5 16/22/32 20/30/40 17/29/35
s 5
f 16/22/20 15/21/19 20/30/41
s 1
f 15/21/29 3/3/4 17/23/34 20/30/42
