# This file uses centimeters as units for non-parametric coordinates.

mtllib fence_10.mtl
g default
v -5.141760 -0.072687 1.939383
v 5.141760 -0.072687 1.939383
v -5.141760 3.975152 1.939383
v 5.141760 3.975152 1.939383
v -5.141760 3.975152 1.574026
v 5.141760 3.975152 1.574026
v -5.141760 -0.072687 1.574026
v 5.141760 -0.072687 1.574026
v -5.141760 3.604346 1.939383
v -5.141760 3.604346 1.574026
v 5.141760 3.604346 1.574026
v 5.141760 3.604346 1.939383
v -5.176722 3.604346 1.974346
v -5.176722 3.604346 1.539064
v -5.176722 3.975152 1.974346
v -5.176722 3.975152 1.539064
v 5.176722 3.975152 1.539064
v 5.176722 3.604346 1.539064
v 5.176722 3.604346 1.974346
v 5.176722 3.975152 1.974346
vt 0.253236 0.005073
vt 0.445062 0.282967
vt 0.520863 0.007741
vt 0.260977 0.255073
vt 0.532107 0.553031
vt 0.770863 0.257741
vt 0.706045 0.273092
vt 0.949652 0.970576
vt 0.706045 0.523092
vt 0.956045 0.523092
vt 0.510977 0.005073
vt 0.510977 0.255073
vt 0.003236 0.005073
vt 0.003236 0.255073
vt 0.260977 0.005073
vt 0.445062 0.700513
vt 0.770863 0.007741
vt 0.027517 0.282967
vt 0.027517 0.700513
vt 0.253236 0.255073
vt 0.532107 0.970576
vt 0.956045 0.273092
vt 0.520863 0.257741
vt 0.949652 0.553031
vt 0.253236 0.232172
vt 0.027517 0.662263
vt 0.003236 0.232172
vt 0.532107 0.591281
vt 0.949652 0.591281
vt 0.510977 0.232172
vt 0.445062 0.662263
vt 0.260977 0.232172
vt 0.003236 0.232172
vt 0.253236 0.232172
vt 0.253236 0.255073
vt 0.003236 0.255073
vt 0.532107 0.553031
vt 0.949652 0.553031
vt 0.949652 0.591281
vt 0.532107 0.591281
vt 0.260977 0.232172
vt 0.510977 0.232172
vt 0.510977 0.255073
vt 0.260977 0.255073
vt 0.027517 0.662263
vt 0.445062 0.662263
vt 0.445062 0.700513
vt 0.027517 0.700513
vn 0.000000 0.000000 1.000000
vn 0.000000 0.000000 1.000000
vn 0.000000 0.000000 1.000000
vn 0.000000 0.000000 1.000000
vn 0.000000 1.000000 -0.000001
vn 0.000000 1.000000 -0.000001
vn 0.000000 1.000000 0.000001
vn 0.000000 1.000000 0.000001
vn 0.000000 0.000000 -1.000000
vn 0.000000 0.000000 -1.000000
vn 0.000000 0.000000 -1.000000
vn 0.000000 0.000000 -1.000000
vn 0.000000 -1.000000 0.000000
vn 0.000000 -1.000000 0.000000
vn 0.000000 -1.000000 0.000000
vn 0.000000 -1.000000 0.000000
vn 1.000000 0.000000 0.000000
vn 1.000000 0.000000 0.000000
vn 1.000000 0.000000 0.000000
vn 1.000000 0.000000 0.000000
vn -1.000000 0.000000 0.000000
vn -1.000000 0.000000 0.000000
vn -1.000000 0.000000 0.000000
vn -1.000000 0.000000 0.000000
vn -1.000000 0.000000 0.000000
vn -1.000000 0.000000 0.000000
vn -1.000000 0.000000 0.000000
vn -1.000000 0.000000 0.000000
vn 0.000000 0.000000 -1.000000
vn 0.000000 0.000000 -1.000000
vn 0.000000 0.000000 -1.000000
vn 0.000000 0.000000 -1.000000
vn 1.000000 0.000000 0.000000
vn 1.000000 0.000000 0.000000
vn 1.000000 0.000000 0.000000
vn 1.000000 0.000000 0.000000
vn 0.000000 0.000000 1.000000
vn 0.000000 0.000000 1.000000
vn 0.000000 0.000000 1.000000
vn 0.000000 0.000000 1.000000
vn 0.000000 -1.000000 -0.000002
vn 0.000000 -1.000000 0.000002
vn 0.000000 -1.000000 0.000002
vn 0.000000 -1.000000 -0.000002
vn 0.000000 1.000000 0.000008
vn 0.000000 1.000000 -0.000008
vn 0.000000 1.000000 0.000008
vn 0.000000 -1.000000 -0.000002
vn 0.000000 -1.000000 -0.000002
vn 0.000000 -1.000000 0.000002
vn 0.000000 -1.000000 0.000002
vn 0.000000 1.000000 -0.000008
s off
g pCube87
usemtl blinn1SG
f 1/18/1 2/2/2 12/31/3 9/26/4
s 1
f 3/3/5 4/17/6 6/6/7 5/23/8
s off
f 10/28/9 11/29/10 8/8/11 7/21/12
f 7/7/13 8/22/14 2/10/15 1/9/16
f 2/15/17 8/11/18 11/30/19 12/32/20
f 7/13/21 1/1/22 9/25/23 10/27/24
f 14/33/25 13/34/26 15/35/27 16/36/28
f 16/37/29 17/38/30 18/39/31 14/40/32
f 19/41/33 18/42/34 17/43/35 20/44/36
f 13/45/37 19/46/38 20/47/39 15/48/40
s 2
f 10/27/41 9/25/42 13/34/43 14/33/44
s 1
f 3/20/5 5/14/8 16/36/45 15/35/46
f 5/5/8 6/24/7 17/38/47 16/37/45
s 2
f 11/29/48 10/28/41 14/40/44 18/39/49
f 12/32/50 11/30/48 18/42/49 19/41/51
s 1
f 6/12/7 4/4/6 20/44/52 17/43/47
s 2
f 9/26/42 12/31/50 19/46/51 13/45/43
s 1
f 4/16/6 3/19/5 15/48/46 20/47/52
