# This file uses centimeters as units for non-parametric coordinates.

mtllib largeHouse_03.mtl
g default
v -16.815926 0.000000 1.996117
v 16.815926 0.000000 1.996117
v -16.815926 4.000000 1.996117
v 16.815926 4.000000 1.996117
v -16.815926 4.000000 -5.003883
v 16.815926 4.000000 -5.003883
v -16.815926 0.000000 -5.003883
v 16.815926 0.000000 -5.003883
v -10.815926 4.000000 1.996117
v -10.815926 4.000000 -5.003883
v -10.815926 0.000000 -5.003883
v -10.815926 0.000000 1.996117
v -16.815926 0.000000 6.996117
v -10.815926 0.000000 6.996117
v -10.815926 4.000000 6.996117
v -16.815926 4.000000 6.996117
v 10.815979 4.000000 1.996117
v 10.815979 4.000000 -5.003883
v 10.815979 0.000000 -5.003883
v 10.815979 0.000000 1.996117
v -16.815926 8.000000 1.996117
v -10.815926 8.000000 1.996117
v -10.815926 8.000000 -5.003883
v -16.815926 8.000000 -5.003883
v 10.815979 8.000000 1.996117
v 10.815979 8.000000 -5.003883
v -16.815926 8.000000 6.996117
v -10.815926 8.000000 6.996117
v -13.815926 10.000000 1.996117
v -13.815926 10.000000 -2.762783
v -13.815926 10.000000 4.755016
v -10.815926 10.000000 -1.503918
v 7.738388 10.000000 -1.503918
v -13.815895 10.000000 -1.503883
v 11.260849 0.000000 1.996117
v 11.260849 3.476797 1.996117
v 16.370995 0.000000 1.996117
v 16.370995 3.476797 1.996117
v 11.260849 -0.000000 -4.664494
v 11.260849 3.476797 -4.664494
v 16.370995 -0.000000 -4.664494
v 16.370995 3.476797 -4.664494
v -1.888084 0.000000 1.996117
v -1.888084 4.000000 1.996117
v -1.888084 8.000000 1.996117
v -1.888084 10.000000 -1.503918
v -1.888084 8.000000 -5.003883
v -1.888084 4.000000 -5.003883
v -1.888084 0.000000 -5.003883
v -1.888084 -0.000000 7.003883
v -1.888084 4.000000 7.003883
v 10.815979 -0.000000 7.003883
v 10.815979 4.000000 7.003883
v 1.289185 5.694678 4.500000
v 7.738388 5.694678 4.500000
vt 0.375000 0.000000
vt 0.500000 0.000000
vt 0.500000 0.250000
vt 0.375000 0.250000
vt 0.375000 0.500000
vt 0.500000 0.500000
vt 0.500000 0.750000
vt 0.375000 0.750000
vt 0.625000 0.000000
vt 0.875000 0.000000
vt 0.875000 0.250000
vt 0.625000 0.250000
vt 0.125000 0.000000
vt 0.375000 0.000000
vt 0.375000 0.250000
vt 0.125000 0.250000
vt 0.531250 0.500000
vt 0.531250 0.750000
vt 0.500000 0.250000
vt 0.500000 0.000000
vt 0.531250 0.000000
vt 0.531250 0.250000
vt 0.562500 0.250000
vt 0.625000 0.500000
vt 0.562500 0.500000
vt 0.562500 0.750000
vt 0.625000 0.750000
vt 0.562500 0.250000
vt 0.562500 0.000000
vt 0.625000 0.000000
vt 0.625000 0.250000
vt 0.375000 0.500000
vt 0.500000 0.500000
vt 0.375000 0.250000
vt 0.531250 0.250000
vt 0.500000 0.250000
vt 0.562500 0.500000
vt 0.562500 0.250000
vt 0.531250 0.500000
vt 0.375000 0.250000
vt 0.500000 0.250000
vt 0.500000 0.250000
vt 0.437500 0.500000
vt 0.458333 0.250000
vt 0.437500 0.250000
vt 0.531250 0.312500
vt 0.500000 0.250000
vt 0.562500 0.375000
vt 0.500000 0.500000
vt 0.531250 0.437500
vt 0.500000 0.250000
vt 0.500000 0.500000
vt 0.562500 0.000000
vt 0.562500 0.000000
vt 0.562500 0.250000
vt 0.625000 0.250000
vt 0.625000 0.000000
vt 0.531250 0.250000
vt 0.531250 0.000000
vt 0.562500 0.000000
vt 0.562500 0.250000
vt 0.562500 0.250000
vt 0.531250 0.250000
vn 0.000000 0.000000 1.000000
vn 0.000000 0.000000 1.000000
vn 0.000000 0.000000 1.000000
vn 0.000000 0.000000 1.000000
vn 0.000000 0.000000 -1.000000
vn 0.000000 0.000000 -1.000000
vn 0.000000 0.000000 -1.000000
vn 0.000000 0.000000 -1.000000
vn 1.000000 0.000000 0.000000
vn 1.000000 0.000000 0.000000
vn 1.000000 0.000000 0.000000
vn 1.000000 0.000000 0.000000
vn -1.000000 0.000000 0.000000
vn -1.000000 0.000000 0.000000
vn -1.000000 0.000000 0.000000
vn -1.000000 0.000000 0.000000
vn 0.000000 0.000000 -1.000000
vn 0.000000 0.000000 -1.000000
vn 0.000000 0.000000 1.000000
vn 0.000000 0.000000 1.000000
vn 0.000000 0.000000 1.000000
vn 0.000000 0.000000 1.000000
vn 1.000000 0.000000 0.000000
vn 1.000000 0.000000 0.000000
vn 1.000000 0.000000 0.000000
vn 1.000000 0.000000 0.000000
vn -1.000000 0.000000 0.000000
vn -1.000000 0.000000 0.000000
vn -1.000000 0.000000 0.000000
vn -1.000000 0.000000 0.000000
vn 0.000000 1.000000 0.000000
vn 0.000000 1.000000 0.000000
vn 0.000000 1.000000 0.000000
vn 0.000000 1.000000 0.000000
vn 0.000000 0.000000 -1.000000
vn 0.000000 0.000000 -1.000000
vn 0.000000 0.000000 -1.000000
vn 0.000000 0.000000 -1.000000
vn 0.000000 0.000000 1.000000
vn 0.000000 0.000000 1.000000
vn 0.000000 0.000000 1.000000
vn 0.000000 0.000000 1.000000
vn 0.000000 0.000000 -1.000000
vn 0.000000 0.000000 -1.000000
vn 0.000000 0.123638 -0.992327
vn 0.000000 0.123638 -0.992327
vn -1.000000 0.000000 0.000000
vn -1.000000 0.000000 0.000000
vn -0.917461 0.397825 0.000000
vn -0.952401 0.304848 0.000000
vn 0.000000 0.000000 1.000000
vn 0.000000 0.000000 1.000000
vn 0.000000 0.000000 1.000000
vn 0.000000 0.000000 1.000000
vn 1.000000 0.000000 0.000000
vn 1.000000 0.000000 0.000000
vn 1.000000 0.000000 0.000000
vn 1.000000 0.000000 0.000000
vn 0.000000 0.000000 -1.000000
vn 0.000000 0.000000 -1.000000
vn 0.000000 0.000000 -1.000000
vn 0.000000 0.000000 -1.000000
vn -1.000000 0.000000 0.000000
vn -1.000000 0.000000 0.000000
vn -0.957675 0.287851 0.000000
vn 0.000000 0.000000 1.000000
vn 0.000000 0.000000 1.000000
vn 0.000000 0.123638 0.992327
vn 0.000000 0.123638 0.992327
vn 1.000000 0.000000 0.000000
vn 1.000000 0.000000 0.000000
vn 0.803516 0.595284 0.000000
vn 0.957676 0.287850 0.000000
vn 0.554700 0.832051 0.000000
vn 0.554700 0.832051 0.000000
vn 0.554700 0.832050 0.000000
vn 0.000000 0.746100 -0.665834
vn -0.554700 0.832051 0.000000
vn -0.554700 0.832050 0.000000
vn -0.554700 0.832051 0.000000
vn 0.000000 0.746100 0.665834
vn 0.554701 0.832050 0.000000
vn 0.000000 0.868245 0.496135
vn 0.000000 0.868245 0.496135
vn 0.000000 0.868245 0.496135
vn 0.000000 0.868245 0.496135
vn 0.544906 0.838497 0.000000
vn 0.544906 0.838497 0.000000
vn 0.544906 0.838497 0.000000
vn 0.000000 0.868241 -0.496143
vn 0.000000 0.868241 -0.496143
vn 0.000000 0.868241 -0.496143
vn 0.000000 0.868241 -0.496143
vn 0.000006 0.868245 0.496135
vn 0.000006 0.868245 0.496135
vn 0.000006 0.868245 0.496135
vn -0.000006 0.868242 -0.496142
vn -0.000006 0.868241 -0.496142
vn -0.000006 0.868241 -0.496142
vn 0.000000 0.000000 1.000000
vn 0.000001 0.000000 1.000000
vn 0.000001 0.000000 1.000000
vn 0.000000 0.000000 1.000000
vn 0.000000 0.000000 1.000000
vn 0.000000 0.000000 1.000000
vn 0.000000 0.000000 1.000000
vn 0.000000 0.000000 1.000000
vn 1.000000 0.000000 0.000000
vn 1.000000 0.000000 0.000000
vn 1.000000 0.000000 0.000000
vn 1.000000 0.000000 0.000000
vn -0.000000 1.000000 -0.000000
vn -0.000000 1.000000 -0.000000
vn -0.000000 1.000000 -0.000000
vn -0.000000 1.000000 -0.000000
vn -1.000000 0.000000 0.000000
vn -1.000000 0.000000 0.000000
vn -1.000000 0.000000 0.000000
vn -1.000000 0.000000 0.000000
vn 0.000000 -1.000000 0.000000
vn 0.000000 -1.000000 0.000000
vn 0.000000 -1.000000 0.000000
vn 0.000000 -1.000000 0.000000
vn 0.000000 0.194121 0.980978
vn 0.000000 0.000000 1.000000
vn 0.000000 0.000000 1.000000
vn 0.000000 0.197496 0.980304
vn 0.000000 0.000000 1.000000
vn 0.000000 0.000000 1.000000
vn 0.000000 0.868245 0.496135
vn 0.000000 0.868245 0.496135
vn 0.000000 0.868241 -0.496143
vn 0.000000 0.868241 -0.496143
vn 0.000000 0.000000 -1.000000
vn 0.000000 0.000000 -1.000000
vn -0.977551 0.210699 0.000000
vn -1.000000 0.000000 0.000000
vn -1.000000 0.000000 0.000000
vn -0.977551 0.210699 0.000000
vn -0.000000 -1.000000 -0.000000
vn -0.000000 -1.000000 -0.000000
vn -0.000000 -1.000000 -0.000000
vn -0.000000 -1.000000 -0.000000
vn 1.000000 0.000000 0.000000
vn 0.979328 0.202279 0.000000
vn 0.979328 0.202279 0.000000
vn 1.000000 0.000000 0.000000
vn 0.000000 0.828149 -0.560508
vn 0.000000 0.828149 -0.560508
vn 0.000000 0.828149 -0.560508
vn 0.000000 0.828149 -0.560508
vn -0.470619 0.882337 0.000000
vn 0.000000 0.828149 0.560508
vn 0.000000 0.828149 0.560508
vn 0.482356 0.875975 0.000000
s off
g polySurface16 polySurface11
usemtl initialShadingGroup
f 13/1/1 14/2/2 15/3/3 16/4/4
s 1
f 5/5/5 10/6/6 11/7/7 7/8/8
s off
f 2/9/9 8/10/10 6/11/11 4/12/12
f 7/13/13 1/14/14 3/15/15 5/16/16
s 1
f 11/7/7 10/6/6 48/17/17 49/18/18
s off
f 9/19/19 12/20/20 43/21/21 44/22/22
f 12/20/23 9/19/24 15/3/25 14/2/26
f 3/15/27 1/14/28 13/1/29 16/4/30
f 17/23/31 4/12/32 6/24/33 18/25/34
s 1
f 19/26/35 18/25/36 6/24/37 8/27/38
s off
f 40/28/39 39/29/40 41/30/41 42/31/42
s 2
f 10/6/43 5/5/44 24/32/45 23/33/46
s 3
f 5/5/47 3/15/48 21/34/49 24/32/50
s 4
f 9/19/51 44/22/52 45/35/53 22/36/54
s off
f 17/23/55 18/25/56 26/37/57 25/38/58
s 5
f 48/17/59 10/6/60 23/33/61 47/39/62
s 3
f 3/15/63 16/4/64 27/40/65 21/34/49
s 7
f 16/4/66 15/3/67 28/41/68 27/40/69
s 8
f 15/3/70 9/19/71 22/36/72 28/41/73
f 22/42/72 23/33/74 30/43/75 29/44/76
s 2
f 23/33/46 24/32/45 30/43/77
s 3
f 24/32/50 21/34/49 29/44/78 30/43/79
f 21/34/49 27/40/65 31/45/80 29/44/78
s 7
f 27/40/69 28/41/68 31/45/81
s 8
f 28/41/73 22/36/72 29/44/76 31/45/82
s 9
f 22/36/83 45/35/84 46/46/85 32/47/86
s off
f 25/38/87 26/37/88 33/48/89
s 10
f 47/39/90 23/33/91 32/49/92 46/50/93
s off
f 22/36/94 32/47/95 34/51/96
f 32/49/97 23/33/98 34/52/99
s 11
f 17/23/100 20/53/101 35/54/102 36/55/103
f 2/9/104 4/12/105 38/56/106 37/57/107
f 4/12/105 17/23/100 36/55/103 38/56/106
s off
f 36/55/108 35/54/109 39/29/110 40/28/111
f 35/54/112 37/57/113 41/30/114 39/29/115
f 37/57/116 38/56/117 42/31/118 41/30/119
f 38/56/120 36/55/121 40/28/122 42/31/123
s 12
f 51/58/124 50/59/125 52/60/126 53/61/127
s 4
f 45/35/53 44/22/52 17/23/128 25/38/129
s 9
f 46/46/85 45/35/84 25/38/130 33/48/131
s 10
f 26/37/132 47/39/90 46/50/93 33/48/133
s 5
f 18/25/134 48/17/59 47/39/62 26/37/135
s 1
f 49/18/18 48/17/17 18/25/36 19/26/35
s 13
f 44/22/136 43/21/137 50/59/138 51/58/139
s off
f 43/21/140 20/53/141 52/60/142 50/59/143
s 14
f 20/53/144 17/23/145 53/61/146 52/60/147
s off
f 17/23/148 44/22/149 54/63/150 55/62/151
s 13
f 44/22/136 51/58/139 54/63/152
s 12
f 51/58/124 53/61/127 55/62/153 54/63/154
s 14
f 53/61/146 17/23/145 55/62/155
