# This file uses centimeters as units for non-parametric coordinates.

mtllib largeHouse_01.mtl
g default
v -16.571960 0.000000 0.026429
v 16.571960 0.000000 1.996116
v -16.571960 4.000000 0.026429
v 16.571960 4.000000 1.996116
v -16.571960 4.000000 -5.003884
v 16.571960 4.000000 -5.003884
v -16.571960 0.000000 -5.003884
v 16.571960 0.000000 -5.003884
v -10.571960 4.000000 1.996116
v -11.789776 4.000000 -5.003884
v -11.789776 0.000000 -5.003884
v -10.571960 0.000000 1.996116
v -16.571960 0.000000 6.996116
v -10.571960 0.000000 6.996116
v -10.571960 4.000000 6.996116
v -16.571960 4.000000 6.996116
v 10.572014 4.000000 1.996116
v 10.572014 4.000000 -5.003884
v 10.572014 0.000000 -5.003884
v 10.572014 0.000000 1.996116
v -16.571960 8.000000 0.026429
v -10.571960 8.000000 1.996116
v -11.789776 8.000000 -5.003884
v -16.571960 8.000000 -5.003884
v 10.572014 8.000000 1.996116
v 10.572014 8.000000 -5.003884
v -16.571960 8.000000 6.996116
v -10.571960 8.000000 6.996116
v 11.016884 0.000000 1.996116
v 11.016884 3.476797 1.996116
v 16.127029 0.000000 1.996116
v 16.127029 3.476797 1.996116
v 11.016884 -0.000000 -4.664495
v 11.016884 3.476797 -4.664495
v 16.127029 -0.000000 -4.664495
v 16.127029 3.476797 -4.664495
v -2.132050 0.000000 1.996116
v -2.132050 4.000000 1.996116
v -2.132050 8.000000 1.996116
v -2.132050 8.000000 -5.003884
v -2.132050 4.000000 -5.003884
v -2.132050 0.000000 -5.003884
v -2.132050 -0.000000 7.003884
v -2.132050 4.000000 7.003884
v 10.572014 -0.000000 7.003884
v 10.572014 4.000000 7.003884
v -2.132050 4.885929 3.230922
v -2.132050 4.885929 5.769078
v 10.572014 4.885929 5.769078
v 10.572014 4.885929 3.230922
v -15.354145 8.885929 0.026423
v -15.354145 8.885929 6.996116
v -11.789776 8.885929 6.996116
v -11.789776 8.885929 0.026422
v -15.354145 8.885929 -3.034186
v -11.789776 8.885929 -3.034186
v -2.132050 8.885929 0.026418
v -2.132050 8.885929 -3.034186
v -2.132050 8.885929 0.026418
v 9.226112 8.885929 0.026418
v 9.226112 8.885929 -3.034186
v -2.132050 8.885929 -3.034186
vt 0.375000 0.000000
vt 0.500000 0.000000
vt 0.500000 0.250000
vt 0.375000 0.250000
vt 0.375000 0.500000
vt 0.500000 0.500000
vt 0.500000 0.750000
vt 0.375000 0.750000
vt 0.625000 0.000000
vt 0.875000 0.000000
vt 0.875000 0.250000
vt 0.625000 0.250000
vt 0.125000 0.000000
vt 0.375000 0.000000
vt 0.375000 0.250000
vt 0.125000 0.250000
vt 0.531250 0.500000
vt 0.531250 0.750000
vt 0.500000 0.250000
vt 0.500000 0.000000
vt 0.531250 0.000000
vt 0.531250 0.250000
vt 0.562500 0.250000
vt 0.625000 0.500000
vt 0.562500 0.500000
vt 0.562500 0.750000
vt 0.625000 0.750000
vt 0.562500 0.250000
vt 0.562500 0.000000
vt 0.625000 0.000000
vt 0.625000 0.250000
vt 0.375000 0.500000
vt 0.500000 0.500000
vt 0.375000 0.250000
vt 0.531250 0.250000
vt 0.500000 0.250000
vt 0.562500 0.500000
vt 0.562500 0.250000
vt 0.531250 0.500000
vt 0.375000 0.250000
vt 0.500000 0.250000
vt 0.562500 0.000000
vt 0.562500 0.000000
vt 0.562500 0.250000
vt 0.625000 0.250000
vt 0.625000 0.000000
vt 0.531250 0.250000
vt 0.531250 0.000000
vt 0.562500 0.000000
vt 0.562500 0.250000
vt 0.531250 0.250000
vt 0.531250 0.250000
vt 0.562500 0.250000
vt 0.562500 0.250000
vt 0.375000 0.250000
vt 0.375000 0.250000
vt 0.500000 0.250000
vt 0.500000 0.250000
vt 0.500000 0.500000
vt 0.375000 0.500000
vt 0.375000 0.250000
vt 0.500000 0.250000
vt 0.500000 0.250000
vt 0.531250 0.250000
vt 0.531250 0.500000
vt 0.500000 0.500000
vt 0.531250 0.250000
vt 0.562500 0.250000
vt 0.562500 0.500000
vt 0.531250 0.500000
vn 0.000000 0.000000 1.000000
vn 0.000000 0.000000 1.000000
vn 0.000000 0.000000 1.000000
vn 0.000000 0.000000 1.000000
vn 0.000000 0.000000 -1.000000
vn 0.000000 0.000000 -1.000000
vn 0.000000 0.000000 -1.000000
vn 0.000000 0.000000 -1.000000
vn 1.000000 0.000000 0.000000
vn 1.000000 0.000000 0.000000
vn 1.000000 0.000000 0.000000
vn 1.000000 0.000000 0.000000
vn -1.000000 0.000000 0.000000
vn -1.000000 0.000000 0.000000
vn -1.000000 0.000000 0.000000
vn -1.000000 0.000000 0.000000
vn 0.000000 0.000000 -1.000000
vn 0.000000 0.000000 -1.000000
vn 0.000000 0.000000 1.000000
vn 0.000000 0.000000 1.000000
vn 0.000000 0.000000 1.000000
vn 0.000000 0.000000 1.000000
vn 1.000000 0.000000 0.000000
vn 1.000000 0.000000 0.000000
vn 1.000000 0.000000 0.000000
vn 1.000000 0.000000 0.000000
vn -1.000000 0.000000 0.000000
vn -1.000000 0.000000 0.000000
vn -1.000000 0.000000 0.000000
vn -1.000000 0.000000 0.000000
vn 0.000000 1.000000 0.000000
vn 0.000000 1.000000 0.000000
vn 0.000000 1.000000 0.000000
vn 0.000000 1.000000 0.000000
vn 0.000000 0.000000 -1.000000
vn 0.000000 0.000000 -1.000000
vn 0.000000 0.000000 -1.000000
vn 0.000000 0.000000 -1.000000
vn 0.000000 0.000000 1.000000
vn 0.000000 0.000000 1.000000
vn 0.000000 0.000000 1.000000
vn 0.000000 0.000000 1.000000
vn 0.000000 0.000000 -1.000000
vn 0.000000 0.000000 -1.000000
vn 0.000000 0.247970 -0.968768
vn 0.000000 0.338820 -0.940851
vn -1.000000 0.000000 0.000000
vn -1.000000 0.000000 0.000000
vn -0.979079 0.203481 0.000000
vn -0.995543 0.094314 0.000000
vn 0.000000 0.000000 1.000000
vn 0.000000 0.000000 1.000000
vn 0.000000 0.373099 0.927792
vn 0.000000 0.470139 0.882592
vn 1.000000 0.000000 0.000000
vn 1.000000 0.000000 0.000000
vn 0.995166 0.098210 0.000000
vn 0.995166 0.098210 0.000000
vn 0.000000 0.000000 -1.000000
vn 0.000000 0.000000 -1.000000
vn 0.000000 0.373897 -0.927470
vn 0.000000 0.365889 -0.930659
vn -1.000000 0.000000 0.000000
vn -1.000000 0.000000 0.000000
vn -0.970314 0.241850 0.000000
vn -0.970314 0.241850 0.000000
vn 0.000000 0.000000 1.000000
vn 0.000000 0.000000 1.000000
vn 0.000000 0.000000 1.000000
vn 0.000000 0.000000 1.000000
vn 1.000000 0.000000 0.000000
vn 1.000000 0.000000 0.000000
vn 0.926350 0.376663 0.000000
vn 0.960927 0.276801 0.000000
vn 0.000000 0.000000 1.000000
vn 0.000001 0.000000 1.000000
vn 0.000001 0.000000 1.000000
vn 0.000000 0.000000 1.000000
vn 0.000000 0.000000 1.000000
vn 0.000000 0.000000 1.000000
vn 0.000000 0.000000 1.000000
vn 0.000000 0.000000 1.000000
vn 1.000000 0.000000 0.000000
vn 1.000000 0.000000 0.000000
vn 1.000000 0.000000 0.000000
vn 1.000000 0.000000 0.000000
vn -0.000000 1.000000 -0.000000
vn -0.000000 1.000000 -0.000000
vn -0.000000 1.000000 -0.000000
vn -0.000000 1.000000 -0.000000
vn -1.000000 0.000000 0.000000
vn -1.000000 0.000000 0.000000
vn -1.000000 0.000000 0.000000
vn -1.000000 0.000000 0.000000
vn 0.000000 -1.000000 0.000000
vn 0.000000 -1.000000 0.000000
vn 0.000000 -1.000000 0.000000
vn 0.000000 -1.000000 0.000000
vn 0.000000 0.245023 0.969517
vn 0.000000 0.000000 1.000000
vn 0.000000 0.000000 1.000000
vn 0.000000 0.245023 0.969517
vn 0.000000 0.000000 1.000000
vn 0.000000 0.256182 0.966629
vn 0.000000 0.000000 -1.000000
vn 0.000000 0.256182 -0.966629
vn -1.000000 -0.000000 0.000000
vn -1.000000 0.000000 0.000000
vn -1.000000 0.000000 0.000000
vn -1.000000 -0.000000 0.000000
vn -0.000000 -1.000000 -0.000000
vn -0.000000 -1.000000 -0.000000
vn -0.000000 -1.000000 -0.000000
vn -0.000000 -1.000000 -0.000000
vn 1.000000 0.000000 0.000000
vn 1.000000 -0.000000 0.000000
vn 1.000000 -0.000000 0.000000
vn 1.000000 0.000000 0.000000
vn 0.000000 1.000000 0.000000
vn 0.000000 1.000000 0.000000
vn 0.000000 1.000000 0.000000
vn 0.000000 1.000000 0.000000
vn 0.000000 1.000000 0.000000
vn 0.000000 1.000000 0.000000
vn 0.000000 1.000000 0.000000
vn 0.000000 1.000000 0.000000
vn 0.000000 1.000000 0.000000
vn 0.000000 1.000000 0.000000
vn 0.000000 1.000000 0.000000
vn 0.000000 1.000000 0.000000
vn 0.000000 1.000000 0.000000
vn 0.000000 1.000000 0.000000
vn 0.000000 1.000000 0.000000
vn 0.000000 1.000000 0.000000
vn 0.000000 1.000000 0.000000
vn 0.000000 1.000000 0.000000
vn 0.000000 1.000000 0.000000
vn 0.000000 1.000000 0.000000
vn -1.000000 -0.000002 0.000000
vn -1.000000 -0.000002 0.000000
vn 0.000000 0.812510 0.582947
vn 0.000000 0.812510 0.582947
vn 1.000000 -0.000005 0.000000
vn 1.000000 -0.000005 0.000000
vn 0.000000 0.812510 -0.582947
vn 0.000000 0.812510 -0.582947
vn 0.000000 0.812510 -0.582947
vn 0.000000 0.812510 -0.582947
vn -0.588279 0.808658 0.000000
vn -0.588279 0.808658 0.000000
vn 0.000000 0.000000 1.000000
vn 0.000000 0.000000 1.000000
vn 0.588278 0.808659 0.000000
vn 0.588278 0.808659 0.000000
vn 0.000000 0.911997 -0.410197
vn 0.000000 0.911997 -0.410197
vn -0.588276 0.808660 0.000000
vn -0.588276 0.808660 0.000000
vn 0.000000 0.911997 0.410197
vn 0.000000 0.911997 0.410197
vn 1.000000 0.000000 0.000000
vn 1.000000 0.000000 0.000000
vn 1.000000 0.000000 0.000000
vn 1.000000 0.000000 0.000000
vn 0.000000 0.911997 -0.410197
vn 0.000000 0.911997 -0.410197
vn 0.000000 0.911997 0.410197
vn 0.000000 0.911997 0.410197
vn 0.549820 0.835283 0.000000
vn 0.549820 0.835283 0.000000
vn 0.000000 0.911997 -0.410197
vn 0.000000 0.911997 -0.410197
vn -1.000000 0.000000 0.000000
vn -1.000000 0.000000 0.000000
vn -1.000000 0.000000 0.000000
vn -1.000000 0.000000 0.000000
s off
g largeHouse_01
usemtl initialShadingGroup
f 13/1/1 14/2/2 15/3/3 16/4/4
s 1
f 5/5/5 10/6/6 11/7/7 7/8/8
s off
f 2/9/9 8/10/10 6/11/11 4/12/12
f 7/13/13 1/14/14 3/15/15 5/16/16
s 1
f 11/7/7 10/6/6 41/17/17 42/18/18
s off
f 9/19/19 12/20/20 37/21/21 38/22/22
f 12/20/23 9/19/24 15/3/25 14/2/26
f 3/15/27 1/14/28 13/1/29 16/4/30
f 17/23/31 4/12/32 6/24/33 18/25/34
s 1
f 19/26/35 18/25/36 6/24/37 8/27/38
s off
f 34/28/39 33/29/40 35/30/41 36/31/42
s 2
f 10/6/43 5/5/44 24/32/45 23/33/46
s 3
f 5/5/47 3/15/48 21/34/49 24/32/50
s 4
f 9/19/51 38/22/52 39/35/53 22/36/54
s 5
f 17/23/55 18/25/56 26/37/57 25/38/58
s 6
f 41/17/59 10/6/60 23/33/61 40/39/62
s 7
f 3/15/63 16/4/64 27/40/65 21/34/66
s 8
f 16/4/67 15/3/68 28/41/69 27/40/70
s 9
f 15/3/71 9/19/72 22/36/73 28/41/74
s 10
f 17/23/75 20/42/76 29/43/77 30/44/78
f 2/9/79 4/12/80 32/45/81 31/46/82
f 4/12/80 17/23/75 30/44/78 32/45/81
s off
f 30/44/83 29/43/84 33/29/85 34/28/86
f 29/43/87 31/46/88 35/30/89 33/29/90
f 31/46/91 32/45/92 36/31/93 35/30/94
f 32/45/95 30/44/96 34/28/97 36/31/98
s 11
f 44/47/99 43/48/100 45/49/101 46/50/102
s 4
f 39/35/53 38/22/52 17/23/103 25/38/104
s 6
f 18/25/105 41/17/59 40/39/62 26/37/106
s 1
f 42/18/18 41/17/17 18/25/36 19/26/35
s 12
f 38/22/107 37/21/108 43/48/109 44/47/110
s off
f 37/21/111 20/42/112 45/49/113 43/48/114
s 13
f 20/42/115 17/23/116 46/50/117 45/49/118
s off
f 47/51/119 48/52/120 49/53/121 50/54/122
f 51/55/123 52/56/124 53/57/125 54/58/126
f 56/59/127 55/60/128 51/61/129 54/62/130
f 54/63/131 57/64/132 58/65/133 56/66/134
f 59/67/135 60/68/136 61/69/137 62/70/138
s 12
f 38/22/107 44/47/110 48/52/139 47/51/140
s 11
f 44/47/99 46/50/102 49/53/141 48/52/142
s 13
f 46/50/117 17/23/116 50/54/143 49/53/144
s off
f 17/23/145 38/22/146 47/51/147 50/54/148
s 7
f 21/34/66 27/40/65 52/56/149 51/55/150
s 8
f 27/40/70 28/41/69 53/57/151 52/56/152
s 9
f 28/41/74 22/36/73 54/58/153 53/57/154
s 2
f 23/33/46 24/32/45 55/60/155 56/59/156
s 3
f 24/32/50 21/34/49 51/61/157 55/60/158
s 4
f 22/36/54 39/35/53 57/64/159 54/63/160
s off
f 39/35/161 40/39/162 58/65/163 57/64/164
s 6
f 40/39/62 23/33/61 56/66/165 58/65/166
s 4
f 39/35/53 25/38/104 60/68/167 59/67/168
s 5
f 25/38/58 26/37/57 61/69/169 60/68/170
s 6
f 26/37/106 40/39/62 62/70/171 61/69/172
s off
f 40/39/173 39/35/174 59/67/175 62/70/176
