# This file uses centimeters as units for non-parametric coordinates.

mtllib largeHouse_01.mtl
g default
v -12.195018 0.000000 9.613547
v 20.948902 0.000000 14.621328
v -12.195018 4.000000 9.613547
v 20.948902 4.885929 14.621328
v -12.195018 4.000000 2.613542
v 20.948902 4.885929 2.613542
v -12.195018 0.000000 2.613542
v 20.948902 0.000000 2.613542
v -7.412754 4.000000 9.613542
v -7.412834 4.000000 2.613542
v -7.412834 0.000000 2.613542
v -7.412758 0.000000 9.613542
v 14.948956 4.000000 9.613542
v 14.948956 4.000000 2.613542
v 14.948956 0.000000 2.613542
v -12.195011 8.000000 9.613547
v -7.412754 8.000000 9.613542
v -7.412834 8.000000 2.613542
v -12.195011 8.000000 2.613542
v 14.948956 8.000000 9.613542
v 14.948956 8.000000 2.613542
v 15.393826 0.000000 14.621328
v 15.393826 4.000000 14.621328
v 20.503971 0.000000 14.621328
v 20.503971 4.000000 14.621328
v 15.393826 -0.000000 2.952931
v 15.393826 4.000000 2.952931
v 20.503971 -0.000000 2.952931
v 20.503971 4.000000 2.952931
v 2.244892 0.000000 9.613542
v 2.244892 4.000000 9.613551
v 2.244892 8.000000 9.613542
v 2.244892 8.000000 2.613542
v 2.244892 4.000000 2.613542
v 2.244892 0.000000 2.613542
v 2.244892 -0.000000 14.621310
v 2.244892 4.000000 14.621318
v 14.948956 -0.000000 14.621310
v 14.948956 4.000000 14.621319
v 3.617695 4.885929 10.848348
v 3.617695 4.885929 13.386504
v 13.576153 4.885929 13.386504
v 13.576153 4.885929 10.848348
v -10.977203 8.885929 7.643849
v -7.412792 8.885929 7.643846
v -10.977203 8.885929 4.583240
v -7.412834 8.885929 4.583240
v 2.244892 8.885929 7.643844
v 2.244892 8.885929 4.583240
v 13.603054 8.885929 7.643844
v 13.603054 8.885929 4.583240
v 2.244892 8.885929 4.583240
v 14.948956 4.885929 14.621328
v 14.948956 4.885929 2.613542
v 14.948956 0.000000 14.621328
v 14.948956 0.000000 2.613542
v 14.948956 8.000000 9.613542
v 2.244900 8.885929 4.583240
v 2.244900 8.000000 2.613542
v 14.948956 4.000000 2.613542
vt 0.375000 0.500000
vt 0.500000 0.500000
vt 0.500000 0.750000
vt 0.375000 0.750000
vt 0.625000 0.000000
vt 0.875000 0.000000
vt 0.875000 0.250000
vt 0.625000 0.250000
vt 0.125000 0.000000
vt 0.375000 0.000000
vt 0.375000 0.250000
vt 0.125000 0.250000
vt 0.531250 0.500000
vt 0.531250 0.750000
vt 0.500000 0.250000
vt 0.500000 0.000000
vt 0.531250 0.000000
vt 0.531250 0.250000
vt 0.562500 0.250000
vt 0.625000 0.500000
vt 0.562500 0.500000
vt 0.562500 0.750000
vt 0.625000 0.750000
vt 0.562500 0.250000
vt 0.562500 0.000000
vt 0.625000 0.000000
vt 0.625000 0.250000
vt 0.375000 0.500000
vt 0.500000 0.500000
vt 0.375000 0.250000
vt 0.500000 0.250000
vt 0.562500 0.500000
vt 0.562500 0.250000
vt 0.531250 0.500000
vt 0.562500 0.000000
vt 0.562500 0.000000
vt 0.562500 0.250000
vt 0.625000 0.250000
vt 0.625000 0.000000
vt 0.531250 0.250000
vt 0.531250 0.000000
vt 0.562500 0.000000
vt 0.562500 0.250000
vt 0.531250 0.250000
vt 0.531250 0.250000
vt 0.562500 0.250000
vt 0.562500 0.250000
vt 0.500000 0.500000
vt 0.375000 0.500000
vt 0.375000 0.250000
vt 0.500000 0.250000
vt 0.500000 0.250000
vt 0.531250 0.250000
vt 0.531250 0.500000
vt 0.500000 0.500000
vt 0.531250 0.250000
vt 0.562500 0.250000
vt 0.562500 0.500000
vt 0.531250 0.500000
vt 0.000000 0.000000
vt 1.000000 0.000000
vt 1.000000 1.000000
vt 0.000000 1.000000
vt 0.000000 0.000000
vt 1.000000 0.000000
vt 1.000000 1.000000
vt 0.000000 1.000000
vt 0.000000 0.000000
vt 1.000000 0.000000
vt 1.000000 1.000000
vt 0.000000 1.000000
vt 0.000000 0.000000
vt 1.000000 0.000000
vt 1.000000 1.000000
vt 0.000000 1.000000
vt 0.000000 0.000000
vt 1.000000 0.000000
vt 1.000000 1.000000
vt 0.000000 1.000000
vt 0.000000 0.000000
vt 1.000000 0.000000
vt 1.000000 1.000000
vt 0.000000 1.000000
vt 0.000000 0.000000
vt 1.000000 0.000000
vt 1.000000 1.000000
vt 0.000000 1.000000
vt 0.000000 0.000000
vt 1.000000 0.000000
vt 1.000000 1.000000
vt 0.000000 1.000000
vt 0.000000 0.000000
vt 1.000000 0.000000
vt 1.000000 1.000000
vt 0.000000 1.000000
vt 0.000000 0.000000
vt 1.000000 0.000000
vt 1.000000 1.000000
vt 0.000000 1.000000
vt 0.000000 0.000000
vt 1.000000 0.000000
vt 1.000000 1.000000
vt 0.000000 1.000000
vt 0.000000 0.000000
vt 1.000000 0.000000
vt 1.000000 1.000000
vt 0.000000 1.000000
vn 0.000000 0.000000 -1.000000
vn 0.000000 0.000000 -1.000000
vn 0.000000 0.000000 -1.000000
vn 0.000000 0.000000 -1.000000
vn 1.000000 0.000000 0.000000
vn 1.000000 0.000000 0.000000
vn 1.000000 0.000000 0.000000
vn 1.000000 0.000000 0.000000
vn -1.000000 0.000000 0.000000
vn -1.000000 0.000000 0.000000
vn -1.000000 0.000000 0.000000
vn -1.000000 0.000000 0.000000
vn 0.000000 0.000000 -1.000000
vn 0.000000 0.000000 -1.000000
vn -0.000000 -0.000001 1.000000
vn -0.000000 -0.000001 1.000000
vn -0.000000 -0.000001 1.000000
vn -0.000000 -0.000001 1.000000
vn 0.000000 1.000000 0.000000
vn 0.000000 1.000000 0.000000
vn 0.000000 1.000000 0.000000
vn 0.000000 1.000000 0.000000
vn 0.000000 0.000000 -1.000000
vn 0.000000 0.000000 -1.000000
vn 0.000000 0.000000 -1.000000
vn 0.000000 0.000000 -1.000000
vn 0.000000 0.000000 1.000000
vn 0.000000 0.000000 1.000000
vn 0.000000 0.000000 1.000000
vn 0.000000 0.000000 1.000000
vn 0.000000 0.000000 -1.000000
vn 0.000000 0.000000 -1.000000
vn 0.000000 0.000000 -1.000000
vn 0.000000 0.000000 -1.000000
vn -1.000000 0.000002 0.000000
vn -1.000000 0.000002 0.000000
vn -1.000000 0.000002 0.000000
vn -1.000000 0.000002 0.000000
vn 1.000000 0.000000 0.000000
vn 1.000000 0.000000 0.000000
vn 0.995166 0.098210 0.000000
vn 0.995166 0.098210 0.000000
vn 0.000000 0.000000 -1.000000
vn 0.000000 0.000000 -1.000000
vn 0.000000 0.000000 -1.000000
vn 0.000000 0.000000 -1.000000
vn -0.000000 0.000000 1.000000
vn -0.000000 0.000000 1.000000
vn -0.000000 0.000000 1.000000
vn -0.000000 0.000000 1.000000
vn 0.000000 0.000000 1.000000
vn 0.000000 0.000000 1.000000
vn 0.000000 0.000000 1.000000
vn 0.000000 0.000000 1.000000
vn 1.000000 0.000000 0.000000
vn 1.000000 0.000000 0.000000
vn 1.000000 0.000000 0.000000
vn 1.000000 0.000000 0.000000
vn -0.000000 1.000000 -0.000000
vn -0.000000 1.000000 -0.000000
vn -0.000000 1.000000 -0.000000
vn -0.000000 1.000000 -0.000000
vn -1.000000 0.000000 0.000000
vn -1.000000 0.000000 0.000000
vn -1.000000 0.000000 0.000000
vn -1.000000 0.000000 0.000000
vn 0.000000 -1.000000 0.000000
vn 0.000000 -1.000000 0.000000
vn 0.000000 -1.000000 0.000000
vn 0.000000 -1.000000 0.000000
vn -0.000000 0.131471 0.991320
vn -0.000000 -0.000002 1.000000
vn -0.000000 -0.000002 1.000000
vn -0.000000 0.131471 0.991320
vn 0.000000 0.000000 -1.000000
vn 0.000000 0.000000 -1.000000
vn 0.000000 0.000000 -1.000000
vn 0.000000 0.000000 -1.000000
vn -1.000000 0.000000 0.000000
vn -1.000000 0.000000 0.000000
vn -1.000000 0.000000 0.000000
vn -1.000000 0.000000 0.000000
vn 0.000000 1.000000 0.000000
vn 0.000000 1.000000 0.000000
vn 0.000000 1.000000 0.000000
vn 0.000000 1.000000 0.000000
vn 0.000000 1.000000 -0.000000
vn 0.000000 1.000000 -0.000000
vn 0.000000 1.000000 -0.000000
vn 0.000000 1.000000 -0.000000
vn 0.000000 1.000000 0.000000
vn 0.000000 1.000000 0.000000
vn 0.000000 1.000000 0.000000
vn 0.000000 1.000000 0.000000
vn 0.000000 1.000000 0.000000
vn 0.000000 1.000000 0.000000
vn 0.000000 1.000000 0.000000
vn 0.000000 1.000000 0.000000
vn -0.000000 0.812512 0.582944
vn -0.000000 0.812512 0.582944
vn 0.542234 0.840227 0.000000
vn 0.542234 0.840228 0.000000
vn 0.542234 0.840228 0.000000
vn 0.542234 0.840227 0.000000
vn -0.000000 0.812509 -0.582948
vn -0.000000 0.812509 -0.582948
vn -0.000000 0.812509 -0.582948
vn -0.000000 0.812509 -0.582948
vn 0.549820 0.835283 0.000000
vn 0.549820 0.835283 0.000000
vn 0.000001 0.000000 1.000000
vn 0.000001 0.000000 1.000000
vn 0.000001 0.000000 1.000000
vn 0.000001 0.000000 1.000000
vn 0.000001 -0.000000 1.000000
vn 0.000001 -0.000000 1.000000
vn 0.000001 -0.000000 1.000000
vn 0.000001 -0.000000 1.000000
vn 0.000000 0.911997 0.410198
vn 0.000000 0.911997 0.410197
vn 0.000000 0.911997 0.410197
vn 0.000000 0.911997 0.410197
vn -0.000000 0.000001 1.000000
vn -0.000000 0.000001 1.000000
vn -0.000000 0.000001 1.000000
vn -0.000000 0.000001 1.000000
vn 0.000000 0.911997 0.410197
vn 0.000000 0.911997 0.410197
vn 0.000000 0.911997 0.410197
vn 0.000000 0.911997 0.410197
vn 0.000000 0.000001 1.000000
vn 0.000000 0.000001 1.000000
vn 0.000000 0.000001 1.000000
vn 0.000000 0.000001 1.000000
vn 0.000000 0.911997 0.410197
vn 0.000000 0.911997 0.410197
vn 0.000000 0.911997 -0.410197
vn 0.000000 0.911997 -0.410197
vn 0.000000 0.911997 -0.410197
vn 0.000000 0.911997 -0.410197
vn 0.000000 0.911997 -0.410197
vn 0.000000 0.911997 -0.410197
vn 0.000000 0.911997 -0.410197
vn 0.000000 0.911997 -0.410197
vn 0.000000 0.911997 -0.410197
vn 0.000000 0.911997 -0.410197
vn 0.000000 0.911997 -0.410197
vn 0.000000 0.911997 -0.410197
vn -0.588283 0.808656 0.000000
vn -0.588283 0.808656 0.000000
vn -0.588283 0.808656 0.000000
vn -0.588283 0.808656 0.000000
vn -0.542236 0.840226 0.000000
vn -0.542236 0.840226 0.000000
vn -0.542236 0.840226 0.000000
vn -0.542236 0.840226 0.000000
vn -1.000000 -0.000008 0.000000
vn -1.000000 -0.000008 0.000000
vn -1.000000 -0.000008 0.000000
vn -1.000000 -0.000008 0.000000
s 1
g polySurface18 polySurface11
usemtl initialShadingGroup
f 5/1/1 10/2/2 11/3/3 7/4/4
s off
f 2/5/5 8/6/6 6/7/7 4/8/8
f 7/9/9 1/10/10 3/11/11 5/12/12
s 1
f 11/3/3 10/2/2 34/13/13 35/14/14
s off
f 9/15/15 12/16/16 30/17/17 31/18/18
f 53/19/19 4/8/20 6/20/21 54/21/22
f 56/22/23 54/21/24 6/20/25 8/23/26
f 27/24/27 26/25/28 28/26/29 29/27/30
f 10/2/31 5/1/32 19/28/33 18/29/34
f 5/1/35 3/11/36 16/30/37 19/28/38
s 2
f 13/19/39 14/21/40 21/32/41 20/33/42
s 3
f 34/13/43 10/2/44 18/29/45 33/34/46
s 4
f 53/19/47 55/35/48 22/36/49 23/37/50
f 2/5/51 4/8/52 25/38/53 24/39/54
f 4/8/52 53/19/47 23/37/50 25/38/53
s off
f 23/37/55 22/36/56 26/25/57 27/24/58
f 22/36/59 24/39/60 28/26/61 26/25/62
f 24/39/63 25/38/64 29/27/65 28/26/66
f 25/38/67 23/37/68 27/24/69 29/27/70
s 5
f 37/40/71 36/41/72 38/42/73 39/43/74
s 3
f 14/21/75 34/13/43 33/34/46 21/32/76
s 1
f 35/14/14 34/13/13 14/21/77 15/22/78
s off
f 31/18/79 30/17/80 36/41/81 37/40/82
f 40/44/83 41/45/84 42/46/85 43/47/86
f 47/48/87 46/49/88 44/50/89 45/51/90
f 45/52/91 48/53/92 49/54/93 47/55/94
f 48/56/95 50/57/96 51/58/97 52/59/98
s 5
f 37/40/71 39/43/74 42/46/99 41/45/100
s off
f 39/43/101 13/19/102 43/47/103 42/46/104
f 13/19/105 31/18/106 40/44/107 43/47/108
s 2
f 20/33/42 21/32/41 51/58/109 50/57/110
s off
f 12/60/111 9/61/112 3/62/113 1/63/114
f 9/64/115 17/65/116 16/66/117 3/67/118
f 44/50/119 16/66/120 17/31/121 45/51/122
f 31/68/123 32/69/124 17/70/125 9/71/126
s 6
f 32/72/127 48/73/128 45/74/129 17/75/130
s off
f 32/76/131 31/77/132 13/78/133 57/79/134
s 6
f 48/80/128 32/81/127 57/82/135 50/83/136
s off
f 52/84/137 51/85/138 21/86/139 33/87/140
f 46/88/141 47/89/142 18/90/143 19/91/144
f 18/92/145 47/93/146 58/94/147 59/95/148
f 44/96/149 46/97/150 19/98/151 16/99/152
f 41/100/153 40/101/154 31/102/155 37/103/156
f 53/104/157 54/105/158 60/106/159 39/107/160
