# This file uses centimeters as units for non-parametric coordinates.

mtllib largeHouse_02.mtl
g default
v -15.892090 0.000000 0.726601
v 16.089294 0.000000 0.726601
v -15.892090 4.000000 0.726601
v 16.089294 4.000000 0.726601
v -15.892090 4.000000 -6.273399
v 16.089294 4.000000 -6.273399
v -15.892090 0.000000 -6.273399
v 16.089294 0.000000 -6.273399
v -9.892090 4.000000 0.726601
v -9.892090 4.000000 -6.273399
v -9.892090 0.000000 -6.273399
v -9.892090 0.000000 0.726601
v -15.892090 0.000000 5.726601
v -9.892090 0.000000 5.726601
v -9.892090 4.000000 5.726601
v -15.892090 4.000000 5.726601
v 9.990746 4.000000 0.726601
v 9.990746 4.000000 -6.273399
v 9.990746 0.000000 -6.273399
v 9.990746 0.000000 0.726601
v -15.892090 8.000000 0.726601
v -9.892090 8.000000 0.726601
v -9.892090 8.000000 -6.273399
v -15.892090 8.000000 -6.273399
v 9.990746 8.000000 0.726601
v 9.990746 8.000000 -6.273399
v -15.892090 8.000000 5.726601
v -9.892090 8.000000 5.726601
v 10.534218 0.000000 0.726601
v 10.534218 3.476797 0.726601
v 15.644363 0.000000 0.726601
v 15.644363 3.476797 0.726601
v 10.534218 -0.000000 -5.934009
v 10.534218 3.476797 -5.934009
v 15.644363 -0.000000 -5.934009
v 15.644363 3.476797 -5.934009
v -15.892090 8.239836 0.726601
v -15.892090 8.239836 5.726601
v -9.892090 8.239836 5.726601
v -9.892090 8.239836 0.726601
v -15.892090 8.239836 -6.273399
v -9.892090 8.239836 -6.273399
v 9.990746 8.239836 0.726601
v 9.990746 8.239836 -6.273399
v -16.089294 8.000000 0.726601
v -16.089294 8.000000 5.923802
v -16.089294 8.239836 5.923802
v -16.089294 8.239836 0.726601
v -9.694885 8.000000 5.923802
v -9.694885 8.239836 5.923802
v -9.694885 8.000000 0.923802
v -9.694885 8.239836 0.923802
v -16.089294 8.000000 -6.470599
v -9.892090 8.000000 -6.470599
v -16.089294 8.239836 -6.470599
v -9.892090 8.239836 -6.470599
v 10.187950 8.000000 0.923802
v 10.187950 8.239836 0.923802
v 10.187950 8.000000 -6.470599
v 10.187950 8.239836 -6.470599
v -3.892082 0.000000 0.726601
v -3.892082 4.000000 0.726601
v -3.892082 8.000000 0.726601
v -3.694878 8.000000 0.923802
v -3.694878 8.239836 0.923802
v -3.892082 8.239836 0.726601
v -3.892082 8.239836 -6.273399
v -3.793480 8.239836 -6.470599
v -3.793480 8.000000 -6.470599
v -3.892082 8.000000 -6.273399
v -3.892082 4.000000 -6.273399
v -3.892082 0.000000 -6.273399
v -3.892082 -0.000000 5.734368
v -3.892082 4.000000 5.734368
v 9.990746 -0.000000 5.734368
v 9.990746 4.000000 5.734368
v -3.892082 4.196558 0.726601
v 9.990746 4.196558 0.726601
v -3.892082 4.196558 5.734368
v 9.990746 4.196558 5.734368
v -4.048286 4.000000 0.726601
v -4.048286 4.000000 5.890576
v -4.048286 4.196558 5.890576
v -4.048286 4.196558 0.726601
v 10.146950 4.000000 5.890576
v 10.146950 4.196558 5.890576
v 10.146950 4.000000 0.726601
v 10.146950 4.196558 0.726601
vt 0.375000 0.000000
vt 0.500000 0.000000
vt 0.500000 0.250000
vt 0.375000 0.250000
vt 0.375000 0.500000
vt 0.500000 0.500000
vt 0.500000 0.750000
vt 0.375000 0.750000
vt 0.625000 0.000000
vt 0.875000 0.000000
vt 0.875000 0.250000
vt 0.625000 0.250000
vt 0.125000 0.000000
vt 0.375000 0.000000
vt 0.375000 0.250000
vt 0.125000 0.250000
vt 0.531250 0.500000
vt 0.531250 0.750000
vt 0.500000 0.250000
vt 0.500000 0.000000
vt 0.531250 0.000000
vt 0.531250 0.250000
vt 0.562500 0.250000
vt 0.625000 0.500000
vt 0.562500 0.500000
vt 0.562500 0.750000
vt 0.625000 0.750000
vt 0.562500 0.250000
vt 0.562500 0.000000
vt 0.625000 0.000000
vt 0.625000 0.250000
vt 0.375000 0.500000
vt 0.500000 0.500000
vt 0.375000 0.250000
vt 0.531250 0.250000
vt 0.500000 0.250000
vt 0.562500 0.500000
vt 0.562500 0.250000
vt 0.531250 0.500000
vt 0.375000 0.250000
vt 0.500000 0.250000
vt 0.562500 0.000000
vt 0.562500 0.000000
vt 0.562500 0.250000
vt 0.625000 0.250000
vt 0.625000 0.000000
vt 0.375000 0.250000
vt 0.375000 0.250000
vt 0.500000 0.250000
vt 0.500000 0.250000
vt 0.500000 0.500000
vt 0.375000 0.500000
vt 0.531250 0.250000
vt 0.531250 0.500000
vt 0.375000 0.250000
vt 0.375000 0.250000
vt 0.375000 0.250000
vt 0.375000 0.250000
vt 0.500000 0.250000
vt 0.500000 0.250000
vt 0.500000 0.250000
vt 0.500000 0.250000
vt 0.500000 0.500000
vt 0.375000 0.500000
vt 0.375000 0.500000
vt 0.500000 0.500000
vt 0.531250 0.250000
vt 0.531250 0.250000
vt 0.562500 0.250000
vt 0.562500 0.500000
vt 0.562500 0.500000
vt 0.562500 0.250000
vt 0.531250 0.500000
vt 0.531250 0.500000
vt 0.562500 0.500000
vt 0.562500 0.250000
vt 0.531250 0.250000
vt 0.531250 0.000000
vt 0.562500 0.000000
vt 0.562500 0.250000
vt 0.562500 0.250000
vt 0.531250 0.250000
vt 0.531250 0.250000
vt 0.562500 0.250000
vt 0.531250 0.250000
vt 0.531250 0.250000
vt 0.531250 0.250000
vt 0.531250 0.250000
vt 0.562500 0.250000
vt 0.562500 0.250000
vt 0.562500 0.250000
vt 0.562500 0.250000
vn 0.000000 0.000000 1.000000
vn 0.000000 0.000000 1.000000
vn 0.000000 0.000000 1.000000
vn 0.000000 0.000000 1.000000
vn 0.000000 0.000000 -1.000000
vn 0.000000 0.000000 -1.000000
vn 0.000000 0.000000 -1.000000
vn 0.000000 0.000000 -1.000000
vn 1.000000 0.000000 0.000000
vn 1.000000 0.000000 0.000000
vn 1.000000 0.000000 0.000000
vn 1.000000 0.000000 0.000000
vn -1.000000 0.000000 0.000000
vn -1.000000 0.000000 0.000000
vn -1.000000 0.000000 0.000000
vn -1.000000 0.000000 0.000000
vn 0.000000 0.000000 -1.000000
vn 0.000000 0.000000 -1.000000
vn 0.000000 0.000000 1.000000
vn 0.000000 0.000000 1.000000
vn 0.000000 0.000000 1.000000
vn 0.000000 0.000000 1.000000
vn 1.000000 0.000000 0.000000
vn 1.000000 0.000000 0.000000
vn 1.000000 0.000000 0.000000
vn 1.000000 0.000000 0.000000
vn -1.000000 0.000000 0.000000
vn -1.000000 0.000000 0.000000
vn -1.000000 0.000000 0.000000
vn -1.000000 0.000000 0.000000
vn 0.000000 1.000000 0.000000
vn 0.000000 1.000000 0.000000
vn 0.000000 1.000000 0.000000
vn 0.000000 1.000000 0.000000
vn 0.000000 0.000000 -1.000000
vn 0.000000 0.000000 -1.000000
vn 0.000000 0.000000 -1.000000
vn 0.000000 0.000000 -1.000000
vn 0.000000 0.000000 1.000000
vn 0.000000 0.000000 1.000000
vn 0.000000 0.000000 1.000000
vn 0.000000 0.000000 1.000000
vn 0.000000 0.000000 -1.000000
vn 0.000000 0.000000 -1.000000
vn 0.000000 0.000000 -1.000000
vn 0.000000 0.000000 -1.000000
vn -1.000000 0.000000 0.000000
vn -1.000000 0.000000 0.000000
vn -1.000000 0.000000 0.000000
vn -1.000000 0.000000 0.000000
vn 0.000000 0.000000 1.000000
vn 0.000000 0.000000 1.000000
vn 0.000000 0.000000 1.000000
vn 0.000000 0.000000 1.000000
vn 1.000000 0.000000 0.000000
vn 1.000000 0.000000 0.000000
vn 1.000000 0.000000 0.000000
vn 1.000000 0.000000 0.000000
vn 0.000000 0.000000 -1.000000
vn 0.000000 0.000000 -1.000000
vn 0.000000 0.000000 -1.000000
vn 0.000000 0.000000 -1.000000
vn -1.000000 0.000000 0.000000
vn -1.000000 0.000000 0.000000
vn -1.000000 0.000000 0.000000
vn -1.000000 0.000000 0.000000
vn 0.000000 0.000000 1.000000
vn 0.000000 0.000000 1.000000
vn 0.000000 0.000000 1.000000
vn 0.000000 0.000000 1.000000
vn 1.000000 0.000000 0.000000
vn 1.000000 0.000000 0.000000
vn 1.000000 0.000000 0.000000
vn 1.000000 0.000000 0.000000
vn 0.000001 0.000000 1.000000
vn 0.000003 0.000000 1.000000
vn 0.000003 0.000000 1.000000
vn 0.000001 0.000000 1.000000
vn 0.000000 0.000000 1.000000
vn 0.000000 0.000000 1.000000
vn 0.000000 0.000000 1.000000
vn 0.000000 0.000000 1.000000
vn 1.000000 0.000000 0.000000
vn 1.000000 0.000000 0.000000
vn 1.000000 0.000000 0.000000
vn 1.000000 0.000000 0.000000
vn -0.000000 1.000000 -0.000000
vn -0.000000 1.000000 -0.000000
vn -0.000000 1.000000 -0.000000
vn -0.000000 1.000000 -0.000000
vn -1.000000 0.000000 0.000000
vn -1.000000 0.000000 0.000000
vn -1.000000 0.000000 0.000000
vn -1.000000 0.000000 0.000000
vn 0.000000 -1.000000 0.000000
vn 0.000000 -1.000000 0.000000
vn 0.000000 -1.000000 0.000000
vn 0.000000 -1.000000 0.000000
vn 0.000000 1.000000 0.000000
vn 0.000000 1.000000 0.000000
vn 0.000000 1.000000 0.000000
vn 0.000000 1.000000 -0.000000
vn 0.000000 1.000000 0.000000
vn 0.000000 1.000000 0.000000
vn 0.000000 1.000000 0.000000
vn 0.000000 1.000000 -0.000000
vn 0.000000 1.000000 0.000000
vn -1.000000 0.000000 0.000000
vn -1.000000 0.000000 0.000000
vn -1.000000 0.000000 0.000000
vn -1.000000 0.000000 0.000000
vn 0.000000 0.000000 1.000000
vn 0.000000 0.000000 1.000000
vn 0.000000 0.000000 1.000000
vn 0.000000 0.000000 1.000000
vn 1.000000 0.000000 0.000000
vn 1.000000 0.000000 0.000000
vn 1.000000 0.000000 0.000000
vn 1.000000 0.000000 0.000000
vn 0.000000 0.000000 -1.000000
vn 0.000000 0.000000 -1.000000
vn 0.000000 0.000000 -1.000000
vn 0.000000 0.000000 -1.000000
vn -1.000000 0.000000 0.000000
vn -1.000000 0.000000 0.000000
vn 0.000000 0.000000 1.000000
vn 0.000000 0.000000 1.000000
vn 0.000000 0.000000 1.000000
vn 0.000000 0.000000 1.000000
vn 1.000000 0.000000 0.000000
vn 1.000000 0.000000 0.000000
vn 1.000000 0.000000 0.000000
vn 1.000000 0.000000 0.000000
vn 0.000000 0.000000 -1.000000
vn 0.000000 0.000000 -1.000000
vn 0.000000 -1.000000 0.000000
vn 0.000000 -1.000000 0.000000
vn 0.000000 -1.000000 0.000000
vn 0.000000 -1.000000 0.000000
vn 0.000000 1.000000 0.000000
vn 0.000000 1.000000 0.000001
vn 0.000000 -1.000000 0.000000
vn 0.000000 -1.000000 0.000000
vn 0.000000 1.000000 0.000001
vn 0.000000 -1.000000 0.000000
vn 0.000000 -1.000000 0.000000
vn 0.000000 1.000000 -0.000001
vn 0.000000 -1.000000 0.000000
vn 0.000000 -1.000000 0.000000
vn 0.000000 -1.000000 0.000000
vn 0.000000 -1.000000 0.000000
vn 0.000000 1.000000 0.000002
vn 0.000000 1.000000 0.000001
vn 0.000000 -1.000000 0.000000
vn 0.000000 -1.000000 0.000000
vn 0.000000 1.000000 0.000001
vn 0.000000 -1.000000 0.000000
vn 0.000000 -1.000000 0.000000
vn 0.000000 -1.000000 0.000000
vn 0.000000 -1.000000 0.000000
vn 0.000000 1.000000 0.000000
vn 0.000000 1.000000 0.000000
vn 0.000000 1.000000 0.000001
vn 0.000000 1.000000 0.000002
vn 0.000000 -1.000000 0.000000
vn 0.000000 -1.000000 0.000000
vn 0.000000 1.000000 0.000003
vn 0.000000 0.000000 1.000000
vn 0.000000 0.000000 1.000000
vn 0.000000 0.000000 1.000000
vn 0.000000 0.000000 1.000000
vn 0.000000 0.000000 1.000000
vn 0.000000 0.000000 1.000000
vn 0.000000 0.000000 1.000000
vn 0.000000 0.000000 1.000000
vn 0.000000 0.000000 -1.000000
vn 0.000000 0.000000 -1.000000
vn 0.000000 0.000000 -1.000000
vn 0.000000 0.000000 -1.000000
vn -1.000000 0.000000 0.000000
vn -1.000000 0.000000 0.000000
vn -1.000000 0.000000 0.000000
vn -1.000000 0.000000 0.000000
vn -0.000000 -1.000000 -0.000000
vn -0.000000 -1.000000 -0.000000
vn -0.000000 -1.000000 -0.000000
vn -0.000000 -1.000000 -0.000000
vn 1.000000 0.000000 0.000000
vn 1.000000 0.000000 0.000000
vn 1.000000 0.000000 0.000000
vn 1.000000 0.000000 0.000000
vn 0.000000 1.000000 0.000000
vn 0.000000 1.000000 0.000000
vn 0.000000 1.000000 0.000000
vn 0.000000 1.000000 0.000000
vn -1.000000 0.000000 0.000000
vn -1.000000 0.000000 0.000000
vn -1.000000 0.000000 0.000000
vn -1.000000 0.000000 0.000000
vn 0.000000 0.000000 1.000000
vn 0.000000 0.000000 1.000000
vn 0.000000 0.000000 1.000000
vn 0.000000 0.000000 1.000000
vn 1.000000 0.000000 0.000000
vn 1.000000 0.000000 0.000000
vn 1.000000 0.000000 0.000000
vn 1.000000 0.000000 0.000000
vn 0.000000 -1.000000 0.000000
vn 0.000000 -1.000000 0.000000
vn 0.000000 -1.000000 0.000000
vn 0.000000 -1.000000 0.000000
vn 0.000000 1.000000 0.000000
vn 0.000000 1.000000 0.000001
vn 0.000000 0.000000 -1.000000
vn 0.000000 0.000000 -1.000000
vn 0.000000 0.000000 -1.000000
vn 0.000000 0.000000 -1.000000
vn 0.000000 -1.000000 0.000000
vn 0.000000 -1.000000 0.000000
vn 0.000000 1.000000 0.000001
vn 0.000000 -1.000000 0.000000
vn 0.000000 -1.000000 0.000000
vn 0.000000 0.000000 -1.000000
vn 0.000000 0.000000 -1.000000
vn 0.000000 0.000000 -1.000000
vn 0.000000 0.000000 -1.000000
vn 0.000000 1.000000 0.000000
s off
g polySurface15 polySurface11
usemtl initialShadingGroup
f 13/1/1 14/2/2 15/3/3 16/4/4
s 1
f 5/5/5 10/6/6 11/7/7 7/8/8
s off
f 2/9/9 8/10/10 6/11/11 4/12/12
f 7/13/13 1/14/14 3/15/15 5/16/16
s 1
f 11/7/7 10/6/6 71/17/17 72/18/18
s off
f 9/19/19 12/20/20 61/21/21 62/22/22
f 12/20/23 9/19/24 15/3/25 14/2/26
f 3/15/27 1/14/28 13/1/29 16/4/30
f 17/23/31 4/12/32 6/24/33 18/25/34
s 1
f 19/26/35 18/25/36 6/24/37 8/27/38
s off
f 34/28/39 33/29/40 35/30/41 36/31/42
f 10/6/43 5/5/44 24/32/45 23/33/46
f 5/5/47 3/15/48 21/34/49 24/32/50
s 2
f 9/19/51 62/22/52 63/35/53 22/36/54
s off
f 17/23/55 18/25/56 26/37/57 25/38/58
s 3
f 71/17/59 10/6/60 23/33/61 70/39/62
s off
f 3/15/63 16/4/64 27/40/65 21/34/66
f 16/4/67 15/3/68 28/41/69 27/40/70
f 15/3/71 9/19/72 22/36/73 28/41/74
s 4
f 17/23/75 20/42/76 29/43/77 30/44/78
f 2/9/79 4/12/80 32/45/81 31/46/82
f 4/12/80 17/23/75 30/44/78 32/45/81
s off
f 30/44/83 29/43/84 33/29/85 34/28/86
f 29/43/87 31/46/88 35/30/89 33/29/90
f 31/46/91 32/45/92 36/31/93 35/30/94
f 32/45/95 30/44/96 34/28/97 36/31/98
s 5
f 37/47/99 38/48/100 39/49/101 40/50/102
f 42/51/103 41/52/104 37/47/99 40/50/105
f 40/50/102 66/53/106 67/54/107 42/51/103
s 8
f 45/55/108 46/56/109 47/57/110 48/58/111
s off
f 46/56/112 49/59/113 50/60/114 47/57/115
f 49/59/116 51/61/117 52/62/118 50/60/119
s 9
f 54/63/120 53/64/121 55/65/122 56/66/123
s 8
f 53/64/124 45/55/108 48/58/111 55/65/125
s 10
f 51/61/126 64/67/127 65/68/128 52/62/129
s off
f 57/69/130 59/70/131 60/71/132 58/72/133
s 9
f 69/73/134 54/63/120 56/66/123 68/74/135
s 11
f 21/34/136 27/40/137 46/56/138 45/55/139
s 5
f 38/48/100 37/47/99 48/58/140 47/57/141
s 11
f 27/40/137 28/41/142 49/59/143 46/56/138
s 5
f 39/49/101 38/48/100 47/57/141 50/60/144
s 11
f 28/41/142 22/36/145 51/61/146 49/59/143
s 5
f 40/50/102 39/49/101 50/60/144 52/62/147
s 11
f 23/33/148 24/32/149 53/64/150 54/63/151
s 5
f 41/52/104 42/51/103 56/66/152 55/65/153
s 11
f 24/32/149 21/34/136 45/55/139 53/64/150
s 5
f 37/47/99 41/52/104 55/65/153 48/58/140
s 11
f 22/36/145 63/35/154 64/67/155 51/61/146
s 5
f 66/53/106 40/50/102 52/62/147 65/68/156
s 11
f 25/38/157 26/37/158 59/70/159 57/69/160
s 5
f 44/75/161 43/76/162 58/72/163 60/71/164
s 11
f 70/39/165 23/33/148 54/63/151 69/73/166
s 5
f 42/51/103 67/54/107 68/74/167 56/66/152
s off
f 74/77/168 73/78/169 75/79/170 76/80/171
s 2
f 63/35/53 62/22/52 17/23/172 25/38/173
s 11
f 64/67/155 63/35/154 25/38/157 57/69/160
s 10
f 65/68/128 64/67/127 57/69/174 58/72/175
s 5
f 43/76/162 66/53/106 65/68/156 58/72/163
f 67/54/107 66/53/106 43/76/162 44/75/161
f 68/74/167 67/54/107 44/75/161 60/71/164
s 9
f 59/70/176 69/73/134 68/74/135 60/71/177
s 11
f 26/37/158 70/39/165 69/73/166 59/70/159
s 3
f 18/25/178 71/17/59 70/39/62 26/37/179
s 1
f 72/18/18 71/17/17 18/25/36 19/26/35
s off
f 62/22/180 61/21/181 73/78/182 74/77/183
f 61/21/184 20/42/185 75/79/186 73/78/187
f 20/42/188 17/23/189 76/80/190 75/79/191
s 13
f 78/81/192 77/82/193 79/83/194 80/84/195
s off
f 81/85/196 82/86/197 83/87/198 84/88/199
f 82/86/200 85/89/201 86/90/202 83/87/203
f 85/89/204 87/91/205 88/92/206 86/90/207
s 14
f 62/22/208 74/77/209 82/86/210 81/85/211
s 13
f 79/83/194 77/82/193 84/88/212 83/87/213
s off
f 77/82/214 62/22/215 81/85/216 84/88/217
s 14
f 74/77/209 76/80/218 85/89/219 82/86/210
s 13
f 80/84/195 79/83/194 83/87/213 86/90/220
s 14
f 76/80/218 17/23/221 87/91/222 85/89/219
s off
f 17/23/223 78/81/224 88/92/225 87/91/226
s 13
f 78/81/192 80/84/195 86/90/220 88/92/227
