# This file uses centimeters as units for non-parametric coordinates.

mtllib medHouse_03.mtl
g default
v -6.000006 0.000000 -0.999998
v 6.000006 0.000000 -2.697907
v -6.000006 4.000000 -0.999998
v 6.000006 4.000000 -2.697907
v -6.000006 4.000000 -8.000001
v 6.000006 4.000000 -8.000001
v -6.000006 0.000000 -8.000001
v 6.000006 0.000000 -8.000001
v 0.000002 4.000000 -0.999998
v 1.503312 4.000000 -8.000001
v 1.503312 0.000000 -8.000001
v 0.000002 0.000000 -0.999998
v 0.000002 0.000000 4.000001
v 0.000002 4.000000 4.000001
v 6.000006 0.000000 4.000001
v 6.000006 4.000000 4.000001
v 0.000002 0.000000 10.000001
v 0.000002 4.000000 10.000001
v 6.000006 -0.000000 10.000001
v 6.000006 4.000000 10.000001
v -4.789031 5.000001 -2.697936
v 1.503312 5.000001 -2.697936
v 1.503312 5.000001 -6.302063
v -4.789031 5.000001 -6.302063
v 1.503314 5.000001 -2.697908
v 4.496703 5.000001 -2.697908
v 4.496703 5.000001 -6.302063
v 1.503314 5.000001 -6.302063
v 1.503314 5.000001 4.000001
v 4.496703 5.000001 4.000001
v 1.503314 5.000001 4.000001
v 4.496703 5.000001 4.000001
v 1.503314 5.000001 8.865293
v 4.496703 5.000001 8.865293
vt 0.375000 0.000000
vt 0.625000 0.000000
vt 0.375000 0.250000
vt 0.625000 0.250000
vt 0.375000 0.500000
vt 0.625000 0.500000
vt 0.375000 0.750000
vt 0.625000 0.750000
vt 0.375000 1.000000
vt 0.625000 1.000000
vt 0.875000 0.000000
vt 0.875000 0.250000
vt 0.125000 0.000000
vt 0.125000 0.250000
vt 0.471192 0.250000
vt 0.471192 0.500000
vt 0.471192 0.750000
vt 0.471192 0.000000
vt 0.471192 1.000000
vt 0.471192 0.250000
vt 0.471192 0.000000
vt 0.625000 0.000000
vt 0.625000 0.250000
vt 0.471192 0.250000
vt 0.471192 0.000000
vt 0.625000 0.000000
vt 0.625000 0.250000
vt 0.375000 0.250000
vt 0.471192 0.250000
vt 0.471192 0.500000
vt 0.375000 0.500000
vt 0.471192 0.250000
vt 0.625000 0.250000
vt 0.625000 0.500000
vt 0.471192 0.500000
vt 0.625000 0.250000
vt 0.471192 0.250000
vt 0.471192 0.250000
vt 0.625000 0.250000
vt 0.625000 0.250000
vt 0.471192 0.250000
vt 0.471192 0.250000
vt 0.625000 0.250000
vn 0.000000 0.000000 1.000000
vn 0.000000 0.000000 1.000000
vn 0.000000 0.411575 0.911376
vn 0.000000 0.235252 0.971934
vn 0.000000 1.000000 0.000000
vn 0.000000 1.000000 0.000000
vn 0.000000 1.000000 0.000000
vn 0.000000 1.000000 0.000000
vn 0.000000 0.215276 -0.976553
vn 0.000000 0.294487 -0.955655
vn 0.000000 0.000000 -1.000000
vn 0.000000 0.000000 -1.000000
vn 0.000000 -1.000000 0.000000
vn 0.000000 -1.000000 0.000000
vn 0.000000 -1.000000 0.000000
vn 0.000000 -1.000000 0.000000
vn 1.000000 0.000000 0.000000
vn 1.000000 0.000000 0.000000
vn 0.989244 0.146273 0.000000
vn 0.967616 0.252425 0.000000
vn -1.000000 0.000000 0.000000
vn -1.000000 0.000000 0.000000
vn -0.995040 0.099474 0.000000
vn -0.995040 0.099474 0.000000
vn 0.000000 1.000000 0.000000
vn 0.000000 1.000000 0.000000
vn 0.000000 1.000000 0.000000
vn 0.000000 1.000000 0.000000
vn 0.000000 0.181334 -0.983422
vn 0.000000 0.000000 -1.000000
vn 0.000000 -1.000000 0.000000
vn 0.000000 -1.000000 0.000000
vn 0.000000 0.097078 0.995277
vn 0.000000 0.000000 1.000000
vn 0.000000 0.000000 1.000000
vn 0.000000 0.097078 0.995277
vn -0.910481 0.413551 0.000000
vn -1.000000 0.000000 0.000000
vn -1.000000 0.000000 0.000000
vn -0.956021 0.293296 0.000000
vn 0.000000 -1.000000 0.000000
vn 0.000000 -1.000000 0.000000
vn -0.000000 -1.000000 -0.000000
vn -0.000000 -1.000000 -0.000000
vn 1.000000 0.000000 0.000000
vn 0.957652 0.287928 0.000000
vn 0.960476 0.278362 0.000000
vn 1.000000 0.000000 0.000000
vn -1.000000 0.000000 0.000000
vn -0.982252 0.187565 0.000000
vn -0.000000 -1.000000 -0.000000
vn -0.000000 -1.000000 -0.000000
vn 0.982252 0.187564 0.000000
vn 1.000000 0.000000 0.000000
vn 0.000000 0.861665 0.507478
vn 0.000000 0.861665 0.507478
vn 0.000000 0.861665 -0.507478
vn 0.000000 0.861665 -0.507478
vn -0.636742 0.771077 0.000000
vn -0.636742 0.771077 0.000000
vn 0.553856 0.832612 0.000000
vn 0.553856 0.832612 0.000000
vn 0.000000 0.861665 -0.507478
vn 0.000000 0.861665 -0.507478
vn -0.553854 0.832614 0.000000
vn -0.553854 0.832614 0.000000
vn 0.553856 0.832612 0.000000
vn 0.553856 0.832612 0.000000
vn -0.553854 0.832614 0.000000
vn -0.553854 0.832614 0.000000
vn 0.000000 0.750235 0.661171
vn 0.000000 0.750235 0.661171
vn 0.553856 0.832612 0.000000
vn 0.553856 0.832612 0.000000
vn 0.000000 1.000000 0.000000
vn 0.000000 1.000000 0.000000
vn 0.000000 1.000000 0.000000
vn 0.000000 1.000000 0.000000
vn 0.000000 1.000000 0.000000
vn 0.000000 1.000000 0.000000
vn 0.000000 1.000000 0.000000
vn 0.000000 1.000000 0.000000
s 1
g pCube56
usemtl initialShadingGroup
f 1/1/1 12/18/2 9/15/3 3/3/4
s off
f 21/28/5 22/29/6 23/30/7 24/31/8
s 2
f 5/5/9 10/16/10 11/17/11 7/7/12
s 3
f 7/7/13 11/17/14 12/19/15 1/9/16
s 4
f 2/2/17 8/11/18 6/12/19 4/4/20
s 5
f 7/13/21 1/1/22 3/3/23 5/14/24
s off
f 25/32/25 26/33/26 27/34/27 28/35/28
s 2
f 11/17/11 10/16/10 6/6/29 8/8/30
s 3
f 12/19/15 11/17/14 8/8/31 2/10/32
s 6
f 18/24/33 17/25/34 19/26/35 20/27/36
s 7
f 9/15/37 12/18/38 13/21/39 14/20/40
s 8
f 12/18/41 2/2/42 15/22/43 13/21/44
s 9
f 2/2/45 4/4/46 16/23/47 15/22/48
s 7
f 14/20/40 13/21/39 17/25/49 18/24/50
s 8
f 13/21/44 15/22/43 19/26/51 17/25/52
s 9
f 15/22/48 16/23/47 20/27/53 19/26/54
s 1
f 3/3/4 9/15/3 22/29/55 21/28/56
s 2
f 10/16/10 5/5/9 24/31/57 23/30/58
s 5
f 5/5/24 3/3/23 21/28/59 24/31/60
s 4
f 4/4/20 6/6/19 27/34/61 26/33/62
s 2
f 6/6/29 10/16/10 28/35/63 27/34/64
s 7
f 9/15/37 14/20/40 29/38/65 25/37/66
s 9
f 16/23/47 4/4/46 26/36/67 30/39/68
s 7
f 14/20/40 18/24/50 33/42/69 31/41/70
s 6
f 18/24/33 20/27/36 34/43/71 33/42/72
s 9
f 20/27/53 16/23/47 32/40/73 34/43/74
s off
f 25/37/75 29/38/76 30/39/77 26/36/78
f 31/41/79 33/42/80 34/43/81 32/40/82
